G04 Layer: TopLayer*
G04 EasyEDA v6.4.17, 2021-03-05T12:05:08+01:00*
G04 f60f8210386e4bb8a37d6fc626a43cf4,a095d68295bf4de09e4161802e6eaeab,10*
G04 Gerber Generator version 0.2*
G04 Scale: 100 percent, Rotated: No, Reflected: No *
G04 Dimensions in inches *
G04 leading zeros omitted , absolute positions ,3 integer and 6 decimal *
%FSLAX36Y36*%
%MOIN*%

%ADD11C,0.0750*%
%ADD12C,0.0500*%
%ADD13C,0.0250*%
%ADD15R,0.0709X0.0630*%
%ADD16R,0.1378X0.0984*%
%ADD17R,0.0984X0.1378*%
%ADD18R,0.0433X0.0394*%
%ADD19R,0.0669X0.0750*%
%ADD20C,0.0669*%
%ADD21C,0.0787*%
%ADD22R,0.0748X0.0748*%
%ADD23C,0.0748*%
%ADD24R,0.0650X0.0550*%
%ADD25C,0.0650*%
%ADD26C,0.0850*%
%ADD27C,0.0354*%

%LPD*%
G36*
X1453460Y-899900D02*
G01*
X1451940Y-899599D01*
X1450660Y-898760D01*
X1449780Y-897500D01*
X1449460Y-896000D01*
X1449720Y-894479D01*
X1450520Y-893180D01*
X1451759Y-892280D01*
X1453779Y-891340D01*
X1456600Y-889360D01*
X1459040Y-886919D01*
X1461020Y-884100D01*
X1462480Y-880980D01*
X1463360Y-877640D01*
X1463680Y-874040D01*
X1463680Y-775960D01*
X1463360Y-772360D01*
X1462480Y-769020D01*
X1461020Y-765900D01*
X1459040Y-763080D01*
X1456600Y-760639D01*
X1453779Y-758660D01*
X1450660Y-757220D01*
X1447340Y-756320D01*
X1443720Y-756000D01*
X1306279Y-756000D01*
X1302660Y-756320D01*
X1299340Y-757220D01*
X1296220Y-758660D01*
X1293400Y-760639D01*
X1290960Y-763080D01*
X1288980Y-765900D01*
X1287520Y-769020D01*
X1286639Y-772340D01*
X1286300Y-776540D01*
X1285920Y-777960D01*
X1285040Y-779160D01*
X1283779Y-779940D01*
X1282320Y-780220D01*
X1247240Y-780220D01*
X1245760Y-779940D01*
X1244500Y-779120D01*
X1242820Y-777540D01*
X1237460Y-773460D01*
X1231680Y-769980D01*
X1225560Y-767140D01*
X1224020Y-766620D01*
X1222680Y-765879D01*
X1221740Y-764680D01*
X1183160Y-690020D01*
X1182760Y-688800D01*
X1182780Y-687500D01*
X1183780Y-681620D01*
X1184140Y-675000D01*
X1183780Y-668379D01*
X1182660Y-661840D01*
X1180820Y-655460D01*
X1178300Y-649340D01*
X1175080Y-643540D01*
X1171240Y-638120D01*
X1166820Y-633180D01*
X1161880Y-628760D01*
X1156460Y-624920D01*
X1150660Y-621700D01*
X1144540Y-619180D01*
X1138160Y-617340D01*
X1131620Y-616220D01*
X1125000Y-615860D01*
X1118380Y-616220D01*
X1111840Y-617340D01*
X1105460Y-619180D01*
X1099340Y-621700D01*
X1093540Y-624920D01*
X1088120Y-628760D01*
X1083180Y-633180D01*
X1078760Y-638120D01*
X1077360Y-640080D01*
X1076120Y-641220D01*
X1074540Y-641740D01*
X1072880Y-641580D01*
X1071420Y-640759D01*
X1070440Y-639400D01*
X1070100Y-637760D01*
X1070180Y-584920D01*
X1070460Y-583480D01*
X1071220Y-582240D01*
X1072380Y-581360D01*
X1073760Y-580940D01*
X1075220Y-581060D01*
X1078600Y-581960D01*
X1082220Y-582280D01*
X1148780Y-582280D01*
X1152400Y-581960D01*
X1155720Y-581080D01*
X1158840Y-579620D01*
X1161680Y-577640D01*
X1164100Y-575200D01*
X1166080Y-572380D01*
X1167540Y-569260D01*
X1168440Y-565940D01*
X1168740Y-562320D01*
X1168740Y-487680D01*
X1168440Y-484060D01*
X1167540Y-480740D01*
X1166080Y-477620D01*
X1164100Y-474799D01*
X1161680Y-472360D01*
X1158840Y-470379D01*
X1155720Y-468920D01*
X1152400Y-468040D01*
X1148780Y-467720D01*
X1082220Y-467720D01*
X1078600Y-468040D01*
X1075280Y-468920D01*
X1072160Y-470379D01*
X1069320Y-472360D01*
X1066900Y-474799D01*
X1064920Y-477620D01*
X1063400Y-480840D01*
X1062380Y-482200D01*
X1060860Y-483000D01*
X1059160Y-483120D01*
X1057580Y-482500D01*
X1052120Y-478880D01*
X1046580Y-476120D01*
X1040780Y-474000D01*
X1034740Y-472560D01*
X1028600Y-471840D01*
X1022400Y-471840D01*
X1016260Y-472560D01*
X1010220Y-474000D01*
X1004419Y-476120D01*
X998880Y-478900D01*
X993700Y-482299D01*
X988960Y-486280D01*
X984720Y-490780D01*
X983199Y-492800D01*
X982120Y-493800D01*
X980740Y-494340D01*
X979260Y-494340D01*
X977880Y-493800D01*
X976800Y-492800D01*
X975280Y-490780D01*
X971040Y-486280D01*
X966300Y-482299D01*
X961120Y-478900D01*
X955580Y-476120D01*
X949780Y-474000D01*
X943740Y-472560D01*
X937600Y-471840D01*
X931400Y-471840D01*
X925260Y-472560D01*
X919220Y-474000D01*
X913420Y-476120D01*
X907880Y-478900D01*
X902700Y-482299D01*
X897960Y-486280D01*
X893720Y-490780D01*
X890020Y-495740D01*
X886919Y-501100D01*
X884460Y-506780D01*
X882700Y-512720D01*
X881620Y-518820D01*
X881260Y-525000D01*
X881620Y-531180D01*
X882700Y-537280D01*
X884460Y-543220D01*
X886919Y-548900D01*
X890020Y-554260D01*
X893720Y-559220D01*
X897960Y-563720D01*
X902700Y-567700D01*
X907880Y-571100D01*
X913420Y-573880D01*
X919220Y-576000D01*
X925260Y-577440D01*
X931400Y-578160D01*
X937600Y-578160D01*
X943740Y-577440D01*
X949780Y-576000D01*
X955580Y-573880D01*
X961120Y-571100D01*
X966300Y-567700D01*
X971040Y-563720D01*
X973740Y-560860D01*
X975040Y-559940D01*
X976580Y-559600D01*
X978139Y-559900D01*
X979460Y-560760D01*
X980340Y-562060D01*
X980660Y-563620D01*
X980520Y-638660D01*
X980180Y-640300D01*
X979180Y-641640D01*
X977740Y-642460D01*
X976080Y-642620D01*
X974500Y-642099D01*
X973259Y-640960D01*
X971240Y-638120D01*
X966820Y-633180D01*
X961880Y-628760D01*
X956460Y-624920D01*
X950660Y-621700D01*
X947180Y-620260D01*
X947180Y-652820D01*
X976500Y-652820D01*
X978020Y-653120D01*
X979320Y-653980D01*
X980200Y-655280D01*
X980500Y-656820D01*
X980440Y-693199D01*
X980120Y-694720D01*
X979260Y-696020D01*
X977960Y-696880D01*
X976440Y-697180D01*
X947180Y-697180D01*
X947180Y-729740D01*
X950660Y-728300D01*
X956460Y-725080D01*
X961880Y-721240D01*
X966820Y-716820D01*
X971240Y-711880D01*
X973139Y-709200D01*
X974380Y-708080D01*
X975960Y-707540D01*
X977620Y-707700D01*
X979080Y-708540D01*
X980060Y-709900D01*
X980400Y-711520D01*
X980300Y-776220D01*
X979980Y-777760D01*
X979120Y-779040D01*
X977820Y-779920D01*
X976300Y-780220D01*
X942240Y-780220D01*
X940759Y-779940D01*
X939500Y-779120D01*
X937820Y-777540D01*
X932460Y-773460D01*
X926680Y-769980D01*
X920560Y-767140D01*
X914160Y-765000D01*
X907580Y-763540D01*
X900879Y-762820D01*
X894120Y-762820D01*
X887420Y-763540D01*
X880840Y-765000D01*
X874440Y-767140D01*
X872340Y-767720D01*
X814360Y-767720D01*
X813120Y-767520D01*
X811979Y-766919D01*
X811100Y-766000D01*
X809040Y-763080D01*
X806600Y-760639D01*
X803780Y-758660D01*
X802300Y-757980D01*
X801100Y-757099D01*
X800280Y-755840D01*
X800000Y-754360D01*
X800000Y-679280D01*
X800300Y-677760D01*
X801180Y-676460D01*
X802460Y-675580D01*
X804000Y-675280D01*
X826320Y-675280D01*
X829940Y-674960D01*
X833259Y-674080D01*
X836380Y-672620D01*
X839200Y-670639D01*
X841640Y-668199D01*
X843620Y-665380D01*
X845080Y-662260D01*
X845960Y-658940D01*
X846280Y-655320D01*
X846280Y-584780D01*
X845960Y-581160D01*
X845080Y-577840D01*
X843620Y-574720D01*
X841640Y-571900D01*
X839200Y-569460D01*
X836380Y-567480D01*
X833259Y-566020D01*
X829940Y-565140D01*
X826320Y-564820D01*
X804000Y-564820D01*
X802460Y-564520D01*
X801180Y-563640D01*
X800300Y-562340D01*
X800000Y-560820D01*
X800000Y-145640D01*
X800280Y-144160D01*
X801100Y-142900D01*
X802300Y-142020D01*
X803780Y-141340D01*
X806600Y-139360D01*
X809040Y-136920D01*
X811020Y-134100D01*
X812480Y-130980D01*
X813360Y-127660D01*
X813700Y-123460D01*
X814080Y-122040D01*
X814960Y-120840D01*
X816220Y-120060D01*
X817680Y-119780D01*
X852760Y-119780D01*
X854240Y-120060D01*
X855500Y-120879D01*
X857180Y-122460D01*
X862540Y-126540D01*
X868319Y-130020D01*
X874440Y-132860D01*
X880840Y-135000D01*
X887420Y-136460D01*
X894120Y-137180D01*
X900879Y-137180D01*
X907580Y-136460D01*
X914160Y-135000D01*
X920560Y-132860D01*
X926680Y-130020D01*
X932460Y-126540D01*
X937820Y-122460D01*
X939500Y-120879D01*
X940759Y-120060D01*
X942240Y-119780D01*
X976300Y-119780D01*
X977820Y-120079D01*
X979120Y-120960D01*
X979980Y-122240D01*
X980300Y-123780D01*
X980400Y-188480D01*
X980060Y-190100D01*
X979080Y-191460D01*
X977620Y-192300D01*
X975960Y-192460D01*
X974380Y-191920D01*
X973139Y-190799D01*
X971240Y-188120D01*
X966820Y-183180D01*
X961880Y-178760D01*
X956460Y-174920D01*
X950660Y-171700D01*
X947180Y-170260D01*
X947180Y-202820D01*
X976440Y-202820D01*
X977960Y-203120D01*
X979260Y-203980D01*
X980120Y-205280D01*
X980440Y-206800D01*
X980500Y-243180D01*
X980200Y-244720D01*
X979320Y-246020D01*
X978020Y-246880D01*
X976500Y-247180D01*
X947180Y-247180D01*
X947180Y-279740D01*
X950660Y-278300D01*
X956460Y-275080D01*
X961880Y-271240D01*
X966820Y-266820D01*
X971240Y-261880D01*
X973259Y-259040D01*
X974500Y-257900D01*
X976080Y-257380D01*
X977740Y-257540D01*
X979180Y-258359D01*
X980180Y-259700D01*
X980520Y-261340D01*
X980660Y-336380D01*
X980340Y-337939D01*
X979460Y-339240D01*
X978139Y-340100D01*
X976580Y-340400D01*
X975040Y-340060D01*
X973740Y-339140D01*
X971040Y-336280D01*
X966300Y-332299D01*
X961120Y-328900D01*
X955580Y-326120D01*
X949780Y-324000D01*
X943740Y-322560D01*
X937600Y-321840D01*
X931400Y-321840D01*
X925260Y-322560D01*
X919220Y-324000D01*
X913420Y-326120D01*
X907880Y-328900D01*
X902700Y-332299D01*
X897960Y-336280D01*
X893720Y-340780D01*
X890020Y-345740D01*
X886919Y-351100D01*
X884460Y-356780D01*
X882700Y-362720D01*
X881620Y-368820D01*
X881260Y-375000D01*
X881620Y-381180D01*
X882700Y-387280D01*
X884460Y-393220D01*
X886919Y-398900D01*
X890020Y-404260D01*
X893720Y-409219D01*
X897960Y-413720D01*
X902700Y-417700D01*
X907880Y-421100D01*
X913420Y-423880D01*
X919220Y-426000D01*
X925260Y-427440D01*
X931400Y-428160D01*
X937600Y-428160D01*
X943740Y-427440D01*
X949780Y-426000D01*
X955580Y-423880D01*
X961120Y-421100D01*
X966300Y-417700D01*
X971040Y-413720D01*
X975280Y-409219D01*
X976800Y-407200D01*
X977880Y-406200D01*
X979260Y-405660D01*
X980740Y-405660D01*
X982120Y-406200D01*
X983199Y-407200D01*
X984720Y-409219D01*
X988960Y-413720D01*
X993700Y-417700D01*
X998880Y-421100D01*
X1004419Y-423880D01*
X1010220Y-426000D01*
X1016260Y-427440D01*
X1022400Y-428160D01*
X1028600Y-428160D01*
X1034740Y-427440D01*
X1040780Y-426000D01*
X1046580Y-423880D01*
X1052120Y-421120D01*
X1057580Y-417500D01*
X1059160Y-416880D01*
X1060860Y-417000D01*
X1062380Y-417800D01*
X1063400Y-419159D01*
X1064920Y-422380D01*
X1066900Y-425200D01*
X1069320Y-427640D01*
X1072160Y-429620D01*
X1075280Y-431079D01*
X1078600Y-431960D01*
X1082220Y-432280D01*
X1148780Y-432280D01*
X1152400Y-431960D01*
X1155720Y-431079D01*
X1158840Y-429620D01*
X1161680Y-427640D01*
X1164100Y-425200D01*
X1166080Y-422380D01*
X1167540Y-419260D01*
X1168440Y-415940D01*
X1168740Y-412320D01*
X1168740Y-337680D01*
X1168440Y-334060D01*
X1167540Y-330740D01*
X1166080Y-327620D01*
X1164100Y-324799D01*
X1161680Y-322360D01*
X1158840Y-320379D01*
X1155720Y-318920D01*
X1152400Y-318040D01*
X1148780Y-317720D01*
X1082220Y-317720D01*
X1078600Y-318040D01*
X1075220Y-318940D01*
X1073760Y-319060D01*
X1072380Y-318640D01*
X1071220Y-317760D01*
X1070460Y-316520D01*
X1070180Y-315080D01*
X1070100Y-262240D01*
X1070440Y-260600D01*
X1071420Y-259240D01*
X1072880Y-258420D01*
X1074540Y-258260D01*
X1076120Y-258780D01*
X1077360Y-259920D01*
X1078760Y-261880D01*
X1083180Y-266820D01*
X1088120Y-271240D01*
X1093540Y-275080D01*
X1099340Y-278300D01*
X1105460Y-280820D01*
X1111840Y-282660D01*
X1118380Y-283780D01*
X1125000Y-284140D01*
X1131620Y-283780D01*
X1138160Y-282660D01*
X1144540Y-280820D01*
X1150660Y-278300D01*
X1156460Y-275080D01*
X1161880Y-271240D01*
X1166820Y-266820D01*
X1171240Y-261880D01*
X1175080Y-256460D01*
X1178300Y-250660D01*
X1180820Y-244540D01*
X1182660Y-238160D01*
X1183780Y-231620D01*
X1184140Y-225000D01*
X1183780Y-218380D01*
X1182780Y-212500D01*
X1182760Y-211200D01*
X1183160Y-209980D01*
X1221740Y-135320D01*
X1222680Y-134120D01*
X1224020Y-133380D01*
X1225560Y-132860D01*
X1231680Y-130020D01*
X1237460Y-126540D01*
X1242820Y-122460D01*
X1244500Y-120879D01*
X1245760Y-120060D01*
X1247240Y-119780D01*
X1282320Y-119780D01*
X1283779Y-120060D01*
X1285040Y-120840D01*
X1285920Y-122040D01*
X1286300Y-123460D01*
X1286639Y-127660D01*
X1287520Y-130980D01*
X1288980Y-134100D01*
X1290960Y-136920D01*
X1293400Y-139360D01*
X1296220Y-141340D01*
X1299340Y-142800D01*
X1302660Y-143680D01*
X1306279Y-144000D01*
X1443720Y-144000D01*
X1447340Y-143680D01*
X1450660Y-142800D01*
X1453779Y-141340D01*
X1456600Y-139360D01*
X1459040Y-136920D01*
X1461020Y-134100D01*
X1462480Y-130980D01*
X1463360Y-127640D01*
X1463680Y-124040D01*
X1463680Y-25960D01*
X1463360Y-22360D01*
X1462480Y-19020D01*
X1461020Y-15900D01*
X1459040Y-13080D01*
X1456600Y-10640D01*
X1453779Y-8660D01*
X1451759Y-7720D01*
X1450520Y-6820D01*
X1449720Y-5520D01*
X1449460Y-4000D01*
X1449780Y-2500D01*
X1450660Y-1240D01*
X1451940Y-400D01*
X1453460Y-100D01*
X1470900Y-100D01*
X1472440Y-400D01*
X1473720Y-1280D01*
X1474600Y-2560D01*
X1474900Y-4100D01*
X1474900Y-895900D01*
X1474600Y-897440D01*
X1473720Y-898720D01*
X1472440Y-899599D01*
X1470900Y-899900D01*
G37*

%LPC*%
G36*
X1306279Y-744000D02*
G01*
X1443720Y-744000D01*
X1447340Y-743680D01*
X1450660Y-742800D01*
X1453779Y-741340D01*
X1456600Y-739360D01*
X1459040Y-736919D01*
X1461020Y-734100D01*
X1462480Y-730980D01*
X1463360Y-727640D01*
X1463680Y-724040D01*
X1463680Y-625960D01*
X1463360Y-622360D01*
X1462480Y-619020D01*
X1461020Y-615900D01*
X1459040Y-613080D01*
X1456600Y-610640D01*
X1453779Y-608660D01*
X1450660Y-607220D01*
X1447340Y-606320D01*
X1443720Y-606000D01*
X1306279Y-606000D01*
X1302660Y-606320D01*
X1299340Y-607220D01*
X1296220Y-608660D01*
X1293400Y-610640D01*
X1290960Y-613080D01*
X1288980Y-615900D01*
X1287520Y-619020D01*
X1286639Y-622360D01*
X1286320Y-625960D01*
X1286320Y-724040D01*
X1286639Y-727640D01*
X1287520Y-730980D01*
X1288980Y-734100D01*
X1290960Y-736919D01*
X1293400Y-739360D01*
X1296220Y-741340D01*
X1299340Y-742800D01*
X1302660Y-743680D01*
G37*
G36*
X902820Y-729740D02*
G01*
X902820Y-697180D01*
X870260Y-697180D01*
X871700Y-700660D01*
X874920Y-706460D01*
X878760Y-711880D01*
X883180Y-716820D01*
X888120Y-721240D01*
X893540Y-725080D01*
X899340Y-728300D01*
G37*
G36*
X870260Y-652820D02*
G01*
X902820Y-652820D01*
X902820Y-620260D01*
X899340Y-621700D01*
X893540Y-624920D01*
X888120Y-628760D01*
X883180Y-633180D01*
X878760Y-638120D01*
X874920Y-643540D01*
X871700Y-649340D01*
G37*
G36*
X1411940Y-594000D02*
G01*
X1443720Y-594000D01*
X1447340Y-593680D01*
X1450660Y-592800D01*
X1453779Y-591340D01*
X1456600Y-589360D01*
X1459040Y-586920D01*
X1461020Y-584100D01*
X1462480Y-580980D01*
X1463360Y-577640D01*
X1463680Y-574040D01*
X1463680Y-552100D01*
X1411940Y-552100D01*
G37*
G36*
X1306279Y-594000D02*
G01*
X1338060Y-594000D01*
X1338060Y-552100D01*
X1286320Y-552100D01*
X1286320Y-574040D01*
X1286639Y-577640D01*
X1287520Y-580980D01*
X1288980Y-584100D01*
X1290960Y-586920D01*
X1293400Y-589360D01*
X1296220Y-591340D01*
X1299340Y-592800D01*
X1302660Y-593680D01*
G37*
G36*
X1286320Y-497900D02*
G01*
X1338060Y-497900D01*
X1338060Y-456000D01*
X1306279Y-456000D01*
X1302660Y-456320D01*
X1299340Y-457220D01*
X1296220Y-458660D01*
X1293400Y-460640D01*
X1290960Y-463080D01*
X1288980Y-465900D01*
X1287520Y-469020D01*
X1286639Y-472360D01*
X1286320Y-475959D01*
G37*
G36*
X1411940Y-497900D02*
G01*
X1463680Y-497900D01*
X1463680Y-475959D01*
X1463360Y-472360D01*
X1462480Y-469020D01*
X1461020Y-465900D01*
X1459040Y-463080D01*
X1456600Y-460640D01*
X1453779Y-458660D01*
X1450660Y-457220D01*
X1447340Y-456320D01*
X1443720Y-456000D01*
X1411940Y-456000D01*
G37*
G36*
X1306279Y-444000D02*
G01*
X1443720Y-444000D01*
X1447340Y-443680D01*
X1450660Y-442800D01*
X1453779Y-441340D01*
X1456600Y-439360D01*
X1459040Y-436920D01*
X1461020Y-434099D01*
X1462480Y-430980D01*
X1463360Y-427640D01*
X1463680Y-424040D01*
X1463680Y-325959D01*
X1463360Y-322360D01*
X1462480Y-319020D01*
X1461020Y-315900D01*
X1459040Y-313080D01*
X1456600Y-310640D01*
X1453779Y-308660D01*
X1450660Y-307220D01*
X1447340Y-306320D01*
X1443720Y-306000D01*
X1306279Y-306000D01*
X1302660Y-306320D01*
X1299340Y-307220D01*
X1296220Y-308660D01*
X1293400Y-310640D01*
X1290960Y-313080D01*
X1288980Y-315900D01*
X1287520Y-319020D01*
X1286639Y-322360D01*
X1286320Y-325959D01*
X1286320Y-424040D01*
X1286639Y-427640D01*
X1287520Y-430980D01*
X1288980Y-434099D01*
X1290960Y-436920D01*
X1293400Y-439360D01*
X1296220Y-441340D01*
X1299340Y-442800D01*
X1302660Y-443680D01*
G37*
G36*
X811360Y-357320D02*
G01*
X812560Y-356980D01*
X817240Y-354940D01*
X821620Y-352280D01*
X825600Y-349060D01*
X829080Y-345319D01*
X832039Y-341140D01*
X834380Y-336599D01*
X836100Y-331760D01*
X837140Y-326760D01*
X837460Y-322180D01*
X811360Y-322180D01*
G37*
G36*
X1411940Y-294000D02*
G01*
X1443720Y-294000D01*
X1447340Y-293680D01*
X1450660Y-292800D01*
X1453779Y-291340D01*
X1456600Y-289360D01*
X1459040Y-286920D01*
X1461020Y-284100D01*
X1462480Y-280980D01*
X1463360Y-277640D01*
X1463680Y-274040D01*
X1463680Y-252100D01*
X1411940Y-252100D01*
G37*
G36*
X1306279Y-294000D02*
G01*
X1338060Y-294000D01*
X1338060Y-252100D01*
X1286320Y-252100D01*
X1286320Y-274040D01*
X1286639Y-277640D01*
X1287520Y-280980D01*
X1288980Y-284100D01*
X1290960Y-286920D01*
X1293400Y-289360D01*
X1296220Y-291340D01*
X1299340Y-292800D01*
X1302660Y-293680D01*
G37*
G36*
X902820Y-279740D02*
G01*
X902820Y-247180D01*
X870260Y-247180D01*
X871700Y-250660D01*
X874920Y-256460D01*
X878760Y-261880D01*
X883180Y-266820D01*
X888120Y-271240D01*
X893540Y-275080D01*
X899340Y-278300D01*
G37*
G36*
X811360Y-277820D02*
G01*
X837460Y-277820D01*
X837140Y-273240D01*
X836100Y-268240D01*
X834380Y-263400D01*
X832039Y-258860D01*
X829080Y-254680D01*
X825600Y-250940D01*
X821620Y-247719D01*
X817240Y-245060D01*
X812560Y-243020D01*
X811360Y-242680D01*
G37*
G36*
X870260Y-202820D02*
G01*
X902820Y-202820D01*
X902820Y-170260D01*
X899340Y-171700D01*
X893540Y-174920D01*
X888120Y-178760D01*
X883180Y-183180D01*
X878760Y-188120D01*
X874920Y-193540D01*
X871700Y-199340D01*
G37*
G36*
X1286320Y-197900D02*
G01*
X1338060Y-197900D01*
X1338060Y-156000D01*
X1306279Y-156000D01*
X1302660Y-156320D01*
X1299340Y-157220D01*
X1296220Y-158660D01*
X1293400Y-160640D01*
X1290960Y-163080D01*
X1288980Y-165900D01*
X1287520Y-169020D01*
X1286639Y-172360D01*
X1286320Y-175960D01*
G37*
G36*
X1411940Y-197900D02*
G01*
X1463680Y-197900D01*
X1463680Y-175960D01*
X1463360Y-172360D01*
X1462480Y-169020D01*
X1461020Y-165900D01*
X1459040Y-163080D01*
X1456600Y-160640D01*
X1453779Y-158660D01*
X1450660Y-157220D01*
X1447340Y-156320D01*
X1443720Y-156000D01*
X1411940Y-156000D01*
G37*

%LPD*%
G36*
X4100Y-899900D02*
G01*
X2560Y-899599D01*
X1280Y-898720D01*
X400Y-897440D01*
X100Y-895900D01*
X100Y-178460D01*
X400Y-176940D01*
X1240Y-175660D01*
X2500Y-174780D01*
X4000Y-174460D01*
X5520Y-174720D01*
X6820Y-175520D01*
X7720Y-176759D01*
X8660Y-178780D01*
X10640Y-181600D01*
X13080Y-184040D01*
X15900Y-186020D01*
X19020Y-187480D01*
X22360Y-188359D01*
X25960Y-188680D01*
X38720Y-188680D01*
X40240Y-188980D01*
X41540Y-189860D01*
X42420Y-191160D01*
X42720Y-192680D01*
X42720Y-214780D01*
X42440Y-216240D01*
X41660Y-217480D01*
X40480Y-218380D01*
X39060Y-218760D01*
X36060Y-219040D01*
X32740Y-219920D01*
X29620Y-221380D01*
X26800Y-223359D01*
X24360Y-225799D01*
X22380Y-228619D01*
X20920Y-231740D01*
X20040Y-235060D01*
X19720Y-238680D01*
X19720Y-301320D01*
X20040Y-304940D01*
X20920Y-308260D01*
X22380Y-311380D01*
X24360Y-314200D01*
X26800Y-316640D01*
X29620Y-318620D01*
X32740Y-320080D01*
X36400Y-321060D01*
X37940Y-321860D01*
X39000Y-323240D01*
X39360Y-325080D01*
X39000Y-326760D01*
X37940Y-328140D01*
X36400Y-328940D01*
X32740Y-329920D01*
X29620Y-331380D01*
X26800Y-333360D01*
X24360Y-335800D01*
X22380Y-338620D01*
X20920Y-341740D01*
X20040Y-345060D01*
X19720Y-348680D01*
X19720Y-361760D01*
X54720Y-361760D01*
X54720Y-325280D01*
X55020Y-323760D01*
X55900Y-322460D01*
X57200Y-321580D01*
X58720Y-321280D01*
X91180Y-321280D01*
X92700Y-321580D01*
X94000Y-322460D01*
X94880Y-323760D01*
X95180Y-325280D01*
X95180Y-361760D01*
X130180Y-361760D01*
X130540Y-359560D01*
X131520Y-358200D01*
X132980Y-357380D01*
X134640Y-357220D01*
X136240Y-357760D01*
X137460Y-358900D01*
X138200Y-359960D01*
X140640Y-362380D01*
X141920Y-363540D01*
X142520Y-364660D01*
X142720Y-365920D01*
X142720Y-424860D01*
X143060Y-429600D01*
X144040Y-434099D01*
X145640Y-438400D01*
X147840Y-442440D01*
X150600Y-446140D01*
X153860Y-449400D01*
X157560Y-452160D01*
X161600Y-454360D01*
X165900Y-455959D01*
X170400Y-456940D01*
X175140Y-457280D01*
X313720Y-457280D01*
X315240Y-457580D01*
X316540Y-458459D01*
X317420Y-459760D01*
X317720Y-461280D01*
X317720Y-482080D01*
X317320Y-483800D01*
X316240Y-485200D01*
X314720Y-486420D01*
X310400Y-490880D01*
X306640Y-495800D01*
X303380Y-501300D01*
X302240Y-502540D01*
X300680Y-503200D01*
X298980Y-503140D01*
X297460Y-502400D01*
X296380Y-501100D01*
X295020Y-498420D01*
X291560Y-493280D01*
X287500Y-488579D01*
X282940Y-484400D01*
X277900Y-480800D01*
X272480Y-477800D01*
X266740Y-475480D01*
X260760Y-473840D01*
X254640Y-472920D01*
X248460Y-472740D01*
X242280Y-473300D01*
X236220Y-474580D01*
X230360Y-476560D01*
X224760Y-479219D01*
X219520Y-482520D01*
X214720Y-486420D01*
X210400Y-490880D01*
X206640Y-495800D01*
X203500Y-501120D01*
X201000Y-506800D01*
X199180Y-512720D01*
X198080Y-518820D01*
X197719Y-525000D01*
X198080Y-531180D01*
X199180Y-537280D01*
X201000Y-543200D01*
X203500Y-548880D01*
X206640Y-554200D01*
X210400Y-559120D01*
X214720Y-563580D01*
X219520Y-567480D01*
X224760Y-570780D01*
X230360Y-573440D01*
X236220Y-575420D01*
X242280Y-576700D01*
X248460Y-577260D01*
X254640Y-577080D01*
X260760Y-576160D01*
X266740Y-574520D01*
X272480Y-572200D01*
X277900Y-569200D01*
X282940Y-565600D01*
X287500Y-561420D01*
X291560Y-556720D01*
X295020Y-551580D01*
X296380Y-548900D01*
X297460Y-547600D01*
X298980Y-546860D01*
X300680Y-546800D01*
X302240Y-547460D01*
X303380Y-548700D01*
X306640Y-554200D01*
X310400Y-559120D01*
X314720Y-563580D01*
X319520Y-567480D01*
X324760Y-570780D01*
X330360Y-573440D01*
X336220Y-575420D01*
X342280Y-576700D01*
X348459Y-577260D01*
X354640Y-577080D01*
X360760Y-576160D01*
X366740Y-574520D01*
X372480Y-572200D01*
X377900Y-569200D01*
X382939Y-565600D01*
X387500Y-561420D01*
X391560Y-556720D01*
X395020Y-551580D01*
X396380Y-548900D01*
X397460Y-547600D01*
X398980Y-546860D01*
X400680Y-546800D01*
X402239Y-547460D01*
X403380Y-548700D01*
X406640Y-554200D01*
X410400Y-559120D01*
X414720Y-563580D01*
X419520Y-567480D01*
X424760Y-570780D01*
X430360Y-573440D01*
X436220Y-575420D01*
X442280Y-576700D01*
X448459Y-577260D01*
X454640Y-577080D01*
X460760Y-576160D01*
X466740Y-574520D01*
X472480Y-572200D01*
X477900Y-569200D01*
X482939Y-565600D01*
X487500Y-561420D01*
X491719Y-556520D01*
X493100Y-555500D01*
X494780Y-555140D01*
X496460Y-555520D01*
X497819Y-556580D01*
X498620Y-558100D01*
X498920Y-559260D01*
X500379Y-562380D01*
X502360Y-565200D01*
X504799Y-567640D01*
X507620Y-569620D01*
X510740Y-571080D01*
X514060Y-571960D01*
X517680Y-572280D01*
X531260Y-572280D01*
X531260Y-541260D01*
X504840Y-541260D01*
X503420Y-541000D01*
X502200Y-540240D01*
X501300Y-539120D01*
X500880Y-537740D01*
X500959Y-536320D01*
X501460Y-534240D01*
X502180Y-528100D01*
X502180Y-521900D01*
X501460Y-515760D01*
X500959Y-513680D01*
X500880Y-512260D01*
X501300Y-510880D01*
X502200Y-509760D01*
X503420Y-509000D01*
X504840Y-508760D01*
X531260Y-508760D01*
X531260Y-477720D01*
X517680Y-477720D01*
X514060Y-478040D01*
X510740Y-478920D01*
X507620Y-480379D01*
X504799Y-482360D01*
X502360Y-484799D01*
X500379Y-487620D01*
X498920Y-490760D01*
X498600Y-491920D01*
X497800Y-493440D01*
X496420Y-494480D01*
X494760Y-494840D01*
X493080Y-494480D01*
X491700Y-493459D01*
X488360Y-489580D01*
X487560Y-488120D01*
X487420Y-486460D01*
X502360Y-368380D01*
X502760Y-367100D01*
X503540Y-366000D01*
X504640Y-365240D01*
X506540Y-364360D01*
X509360Y-362380D01*
X511800Y-359960D01*
X512540Y-358900D01*
X513760Y-357760D01*
X515360Y-357220D01*
X517020Y-357380D01*
X518480Y-358200D01*
X519460Y-359560D01*
X519820Y-361760D01*
X554820Y-361760D01*
X554820Y-325280D01*
X555120Y-323760D01*
X556000Y-322460D01*
X557300Y-321580D01*
X558820Y-321280D01*
X591280Y-321280D01*
X592800Y-321580D01*
X594100Y-322460D01*
X594980Y-323760D01*
X595280Y-325280D01*
X595280Y-361760D01*
X630280Y-361760D01*
X630280Y-348680D01*
X629960Y-345060D01*
X629080Y-341740D01*
X627620Y-338620D01*
X625640Y-335800D01*
X623200Y-333360D01*
X620380Y-331380D01*
X617260Y-329920D01*
X613600Y-328940D01*
X612060Y-328140D01*
X611000Y-326760D01*
X610640Y-324920D01*
X611000Y-323240D01*
X612060Y-321860D01*
X613600Y-321060D01*
X617260Y-320080D01*
X620380Y-318620D01*
X623200Y-316640D01*
X625640Y-314200D01*
X627620Y-311380D01*
X629080Y-308260D01*
X629960Y-304940D01*
X630280Y-301320D01*
X630280Y-238680D01*
X629960Y-235060D01*
X629080Y-231740D01*
X627620Y-228619D01*
X625640Y-225799D01*
X623200Y-223359D01*
X620380Y-221380D01*
X617260Y-219920D01*
X613940Y-219040D01*
X610320Y-218720D01*
X596560Y-218720D01*
X594900Y-218359D01*
X593540Y-217340D01*
X592720Y-215840D01*
X584780Y-188860D01*
X584660Y-187220D01*
X585200Y-185660D01*
X586340Y-184460D01*
X586920Y-184040D01*
X589360Y-181600D01*
X591340Y-178780D01*
X592800Y-175660D01*
X593680Y-172340D01*
X594000Y-168720D01*
X594000Y-31280D01*
X593680Y-27660D01*
X592800Y-24340D01*
X591340Y-21220D01*
X589360Y-18400D01*
X586920Y-15960D01*
X584100Y-13980D01*
X580980Y-12520D01*
X577640Y-11640D01*
X574040Y-11319D01*
X475959Y-11319D01*
X472360Y-11640D01*
X469020Y-12520D01*
X465900Y-13980D01*
X463080Y-15960D01*
X460640Y-18400D01*
X458660Y-21220D01*
X457220Y-24340D01*
X456320Y-27660D01*
X456000Y-31280D01*
X456000Y-168720D01*
X456320Y-172340D01*
X457220Y-175660D01*
X458660Y-178780D01*
X460640Y-181600D01*
X463080Y-184040D01*
X465900Y-186020D01*
X469020Y-187480D01*
X472360Y-188359D01*
X475959Y-188680D01*
X514440Y-188680D01*
X516100Y-189040D01*
X517460Y-190060D01*
X518280Y-191560D01*
X526800Y-220500D01*
X526940Y-221920D01*
X526600Y-223299D01*
X525780Y-224460D01*
X524460Y-225799D01*
X522480Y-228619D01*
X521019Y-231740D01*
X519700Y-236860D01*
X518840Y-238039D01*
X517620Y-238820D01*
X516200Y-239120D01*
X512700Y-239200D01*
X511120Y-238920D01*
X506540Y-235640D01*
X503420Y-234180D01*
X500080Y-233280D01*
X496480Y-232979D01*
X453519Y-232979D01*
X449920Y-233280D01*
X446580Y-234180D01*
X443459Y-235640D01*
X440640Y-237620D01*
X438200Y-240040D01*
X436220Y-242880D01*
X434760Y-246000D01*
X433880Y-249320D01*
X433560Y-252920D01*
X433560Y-291960D01*
X433880Y-295560D01*
X434799Y-298960D01*
X434920Y-300000D01*
X434799Y-301040D01*
X433880Y-304440D01*
X433560Y-308040D01*
X433560Y-347080D01*
X433880Y-350680D01*
X434760Y-354000D01*
X436220Y-357120D01*
X437440Y-358860D01*
X438040Y-360200D01*
X438140Y-361659D01*
X423360Y-478380D01*
X422760Y-480020D01*
X421520Y-481260D01*
X419520Y-482520D01*
X414720Y-486420D01*
X410400Y-490880D01*
X406640Y-495800D01*
X403380Y-501300D01*
X402239Y-502540D01*
X400680Y-503200D01*
X398980Y-503140D01*
X397460Y-502400D01*
X396380Y-501100D01*
X395020Y-498420D01*
X391560Y-493280D01*
X387500Y-488579D01*
X383579Y-485000D01*
X382620Y-483660D01*
X382280Y-482040D01*
X382280Y-425140D01*
X381940Y-420400D01*
X380959Y-415900D01*
X379360Y-411599D01*
X377160Y-407560D01*
X374400Y-403860D01*
X371140Y-400600D01*
X367440Y-397840D01*
X363400Y-395640D01*
X359099Y-394040D01*
X354600Y-393060D01*
X349860Y-392720D01*
X211280Y-392720D01*
X209760Y-392420D01*
X208460Y-391540D01*
X207580Y-390240D01*
X207280Y-388720D01*
X207280Y-365920D01*
X207480Y-364660D01*
X208080Y-363540D01*
X209360Y-362380D01*
X211800Y-359960D01*
X213780Y-357120D01*
X215240Y-354000D01*
X216119Y-350680D01*
X216439Y-347080D01*
X216439Y-308040D01*
X216119Y-304440D01*
X215219Y-301040D01*
X215080Y-300000D01*
X215219Y-298960D01*
X216119Y-295560D01*
X216439Y-291960D01*
X216439Y-252920D01*
X216119Y-249320D01*
X215240Y-246000D01*
X213780Y-242880D01*
X211800Y-240040D01*
X209360Y-237620D01*
X206540Y-235640D01*
X203420Y-234180D01*
X200080Y-233280D01*
X196480Y-232979D01*
X153520Y-232979D01*
X149920Y-233280D01*
X146580Y-234180D01*
X143460Y-235640D01*
X138880Y-238920D01*
X137300Y-239200D01*
X133800Y-239120D01*
X132380Y-238820D01*
X131160Y-238039D01*
X130300Y-236860D01*
X128980Y-231740D01*
X127520Y-228619D01*
X125540Y-225799D01*
X123100Y-223359D01*
X120280Y-221380D01*
X117160Y-219920D01*
X113840Y-219040D01*
X110940Y-218780D01*
X109520Y-218380D01*
X108340Y-217500D01*
X107560Y-216240D01*
X107280Y-214800D01*
X107280Y-192680D01*
X107579Y-191160D01*
X108460Y-189860D01*
X109760Y-188980D01*
X111280Y-188680D01*
X124040Y-188680D01*
X127640Y-188359D01*
X130980Y-187480D01*
X134100Y-186020D01*
X136920Y-184040D01*
X139360Y-181600D01*
X141340Y-178780D01*
X142800Y-175660D01*
X143680Y-172340D01*
X144000Y-168720D01*
X144000Y-31280D01*
X143680Y-27660D01*
X142800Y-24340D01*
X141340Y-21220D01*
X139360Y-18400D01*
X136920Y-15960D01*
X134100Y-13980D01*
X130980Y-12520D01*
X127640Y-11640D01*
X124040Y-11319D01*
X25960Y-11319D01*
X22360Y-11640D01*
X19020Y-12520D01*
X15900Y-13980D01*
X13080Y-15960D01*
X10640Y-18400D01*
X8660Y-21220D01*
X7720Y-23240D01*
X6820Y-24480D01*
X5520Y-25280D01*
X4000Y-25540D01*
X2500Y-25219D01*
X1240Y-24340D01*
X400Y-23060D01*
X100Y-21540D01*
X100Y-4100D01*
X400Y-2560D01*
X1280Y-1280D01*
X2560Y-400D01*
X4100Y-100D01*
X646540Y-100D01*
X648060Y-400D01*
X649340Y-1240D01*
X650220Y-2500D01*
X650540Y-4000D01*
X650280Y-5520D01*
X649479Y-6820D01*
X648240Y-7720D01*
X646220Y-8660D01*
X643400Y-10640D01*
X640960Y-13080D01*
X638980Y-15900D01*
X637520Y-19020D01*
X636640Y-22360D01*
X636320Y-25960D01*
X636320Y-124040D01*
X636640Y-127640D01*
X637520Y-130980D01*
X638980Y-134100D01*
X640960Y-136920D01*
X643400Y-139360D01*
X646220Y-141340D01*
X649340Y-142800D01*
X652660Y-143680D01*
X656280Y-144000D01*
X696000Y-144000D01*
X697540Y-144300D01*
X698820Y-145160D01*
X699700Y-146460D01*
X700000Y-148000D01*
X700000Y-752000D01*
X699700Y-753540D01*
X698820Y-754840D01*
X697540Y-755699D01*
X696000Y-756000D01*
X656280Y-756000D01*
X652660Y-756320D01*
X649340Y-757220D01*
X646220Y-758660D01*
X643400Y-760639D01*
X640960Y-763080D01*
X638980Y-765900D01*
X637520Y-769020D01*
X636640Y-772360D01*
X636320Y-775960D01*
X636320Y-874040D01*
X636640Y-877640D01*
X637520Y-880980D01*
X638980Y-884100D01*
X640960Y-886919D01*
X643400Y-889360D01*
X646220Y-891340D01*
X648240Y-892280D01*
X649479Y-893180D01*
X650280Y-894479D01*
X650540Y-896000D01*
X650220Y-897500D01*
X649340Y-898760D01*
X648060Y-899599D01*
X646540Y-899900D01*
G37*

%LPC*%
G36*
X248460Y-877260D02*
G01*
X254640Y-877080D01*
X260760Y-876160D01*
X266740Y-874520D01*
X272480Y-872200D01*
X277900Y-869200D01*
X282940Y-865600D01*
X287500Y-861420D01*
X291560Y-856720D01*
X295020Y-851580D01*
X296380Y-848900D01*
X297460Y-847600D01*
X298980Y-846860D01*
X300680Y-846800D01*
X302240Y-847460D01*
X303380Y-848700D01*
X306640Y-854200D01*
X310400Y-859120D01*
X314720Y-863580D01*
X319520Y-867480D01*
X324760Y-870780D01*
X330360Y-873439D01*
X336220Y-875420D01*
X342280Y-876700D01*
X348459Y-877260D01*
X354640Y-877080D01*
X360760Y-876160D01*
X366740Y-874520D01*
X372480Y-872200D01*
X377900Y-869200D01*
X382939Y-865600D01*
X387500Y-861420D01*
X391560Y-856720D01*
X395020Y-851580D01*
X396380Y-848900D01*
X397460Y-847600D01*
X398980Y-846860D01*
X400680Y-846800D01*
X402239Y-847460D01*
X403380Y-848700D01*
X406640Y-854200D01*
X410400Y-859120D01*
X414720Y-863580D01*
X419520Y-867480D01*
X424760Y-870780D01*
X430360Y-873439D01*
X436220Y-875420D01*
X442280Y-876700D01*
X448459Y-877260D01*
X454640Y-877080D01*
X460760Y-876160D01*
X466740Y-874520D01*
X472480Y-872200D01*
X477900Y-869200D01*
X482939Y-865600D01*
X487500Y-861420D01*
X491560Y-856720D01*
X495020Y-851580D01*
X496380Y-848900D01*
X497460Y-847600D01*
X498980Y-846860D01*
X500680Y-846800D01*
X502239Y-847460D01*
X503380Y-848700D01*
X506640Y-854200D01*
X510400Y-859120D01*
X514720Y-863580D01*
X519520Y-867480D01*
X524760Y-870780D01*
X530360Y-873439D01*
X536220Y-875420D01*
X542280Y-876700D01*
X548460Y-877260D01*
X554640Y-877080D01*
X560760Y-876160D01*
X566740Y-874520D01*
X572480Y-872200D01*
X577900Y-869200D01*
X582940Y-865600D01*
X587500Y-861420D01*
X591560Y-856720D01*
X595020Y-851580D01*
X597840Y-846080D01*
X600000Y-840260D01*
X601460Y-834240D01*
X602180Y-828100D01*
X602180Y-821900D01*
X601460Y-815759D01*
X600000Y-809740D01*
X597840Y-803920D01*
X595020Y-798420D01*
X591560Y-793280D01*
X587500Y-788580D01*
X582940Y-784400D01*
X577900Y-780800D01*
X572480Y-777800D01*
X566740Y-775480D01*
X560760Y-773840D01*
X554640Y-772920D01*
X548460Y-772740D01*
X542280Y-773300D01*
X536220Y-774580D01*
X530360Y-776560D01*
X524760Y-779220D01*
X519520Y-782520D01*
X514720Y-786420D01*
X510400Y-790879D01*
X506640Y-795800D01*
X503380Y-801300D01*
X502239Y-802540D01*
X500680Y-803199D01*
X498980Y-803139D01*
X497460Y-802400D01*
X496380Y-801100D01*
X495020Y-798420D01*
X491560Y-793280D01*
X487500Y-788580D01*
X482939Y-784400D01*
X477900Y-780800D01*
X472480Y-777800D01*
X466740Y-775480D01*
X460760Y-773840D01*
X454640Y-772920D01*
X448459Y-772740D01*
X442280Y-773300D01*
X436220Y-774580D01*
X430360Y-776560D01*
X424760Y-779220D01*
X419520Y-782520D01*
X414720Y-786420D01*
X410400Y-790879D01*
X406640Y-795800D01*
X403380Y-801300D01*
X402239Y-802540D01*
X400680Y-803199D01*
X398980Y-803139D01*
X397460Y-802400D01*
X396380Y-801100D01*
X395020Y-798420D01*
X391560Y-793280D01*
X387500Y-788580D01*
X382939Y-784400D01*
X377900Y-780800D01*
X372480Y-777800D01*
X366740Y-775480D01*
X360760Y-773840D01*
X354640Y-772920D01*
X348459Y-772740D01*
X342280Y-773300D01*
X336220Y-774580D01*
X330360Y-776560D01*
X324760Y-779220D01*
X319520Y-782520D01*
X314720Y-786420D01*
X310400Y-790879D01*
X306640Y-795800D01*
X303380Y-801300D01*
X302240Y-802540D01*
X300680Y-803199D01*
X298980Y-803139D01*
X297460Y-802400D01*
X296380Y-801100D01*
X295020Y-798420D01*
X291560Y-793280D01*
X287500Y-788580D01*
X282940Y-784400D01*
X277900Y-780800D01*
X272480Y-777800D01*
X266740Y-775480D01*
X260760Y-773840D01*
X254640Y-772920D01*
X248460Y-772740D01*
X242280Y-773300D01*
X234460Y-774980D01*
X233260Y-774820D01*
X232160Y-774300D01*
X158840Y-725420D01*
X157960Y-724620D01*
X157360Y-723600D01*
X157080Y-722440D01*
X156600Y-716860D01*
X155300Y-710460D01*
X153280Y-704260D01*
X150580Y-698319D01*
X147200Y-692720D01*
X143040Y-687360D01*
X142200Y-686100D01*
X141900Y-684620D01*
X142180Y-683120D01*
X142980Y-681840D01*
X144220Y-680960D01*
X147280Y-679520D01*
X150100Y-677540D01*
X152540Y-675100D01*
X154520Y-672280D01*
X155980Y-669160D01*
X156880Y-665840D01*
X157180Y-662220D01*
X157180Y-587780D01*
X156880Y-584160D01*
X155980Y-580840D01*
X154520Y-577720D01*
X152540Y-574900D01*
X150100Y-572460D01*
X147280Y-570480D01*
X144160Y-569020D01*
X140840Y-568120D01*
X137220Y-567820D01*
X62779Y-567820D01*
X59160Y-568120D01*
X55839Y-569020D01*
X52720Y-570480D01*
X49900Y-572460D01*
X47460Y-574900D01*
X45480Y-577720D01*
X44020Y-580840D01*
X43120Y-584160D01*
X42820Y-587780D01*
X42820Y-662220D01*
X43120Y-665840D01*
X44020Y-669160D01*
X45480Y-672280D01*
X47460Y-675100D01*
X49900Y-677540D01*
X52720Y-679520D01*
X55780Y-680960D01*
X57020Y-681840D01*
X57820Y-683120D01*
X58099Y-684620D01*
X57800Y-686100D01*
X56780Y-687560D01*
X52800Y-692720D01*
X49420Y-698319D01*
X46720Y-704260D01*
X44700Y-710460D01*
X43400Y-716860D01*
X42840Y-723360D01*
X43019Y-729900D01*
X43960Y-736360D01*
X45620Y-742660D01*
X47980Y-748760D01*
X51040Y-754520D01*
X54720Y-759920D01*
X59000Y-764860D01*
X63800Y-769260D01*
X69080Y-773100D01*
X74780Y-776320D01*
X80780Y-778860D01*
X87040Y-780699D01*
X93480Y-781800D01*
X100000Y-782180D01*
X106519Y-781800D01*
X112960Y-780699D01*
X119300Y-778820D01*
X120559Y-778520D01*
X121880Y-778640D01*
X123059Y-779180D01*
X196300Y-828000D01*
X197220Y-828840D01*
X197820Y-829900D01*
X199180Y-837280D01*
X201000Y-843199D01*
X203500Y-848880D01*
X206640Y-854200D01*
X210400Y-859120D01*
X214720Y-863580D01*
X219520Y-867480D01*
X224760Y-870780D01*
X230360Y-873439D01*
X236220Y-875420D01*
X242280Y-876700D01*
G37*
G36*
X653680Y-675280D02*
G01*
X666760Y-675280D01*
X666760Y-640280D01*
X633720Y-640280D01*
X633720Y-655320D01*
X634040Y-658940D01*
X634920Y-662260D01*
X636380Y-665380D01*
X638360Y-668199D01*
X640800Y-670639D01*
X643620Y-672620D01*
X646740Y-674080D01*
X650060Y-674960D01*
G37*
G36*
X633720Y-599820D02*
G01*
X666760Y-599820D01*
X666760Y-564820D01*
X653680Y-564820D01*
X650060Y-565140D01*
X646740Y-566020D01*
X643620Y-567480D01*
X640800Y-569460D01*
X638360Y-571900D01*
X636380Y-574720D01*
X634920Y-577840D01*
X634040Y-581160D01*
X633720Y-584780D01*
G37*
G36*
X568760Y-572280D02*
G01*
X582320Y-572280D01*
X585940Y-571960D01*
X589260Y-571080D01*
X592380Y-569620D01*
X595200Y-567640D01*
X597640Y-565200D01*
X599620Y-562380D01*
X601080Y-559260D01*
X601960Y-555940D01*
X602280Y-552320D01*
X602280Y-541260D01*
X568760Y-541260D01*
G37*
G36*
X568760Y-508760D02*
G01*
X602280Y-508760D01*
X602280Y-497680D01*
X601960Y-494060D01*
X601080Y-490740D01*
X599620Y-487620D01*
X597640Y-484799D01*
X595200Y-482360D01*
X592380Y-480379D01*
X589260Y-478920D01*
X585940Y-478040D01*
X582320Y-477720D01*
X568760Y-477720D01*
G37*
G36*
X95180Y-431280D02*
G01*
X110220Y-431280D01*
X113840Y-430959D01*
X117160Y-430080D01*
X120280Y-428620D01*
X123100Y-426640D01*
X125540Y-424200D01*
X127520Y-421380D01*
X128980Y-418260D01*
X129860Y-414940D01*
X130180Y-411320D01*
X130180Y-398260D01*
X95180Y-398260D01*
G37*
G36*
X595280Y-431280D02*
G01*
X610320Y-431280D01*
X613940Y-430959D01*
X617260Y-430080D01*
X620380Y-428620D01*
X623200Y-426640D01*
X625640Y-424200D01*
X627620Y-421380D01*
X629080Y-418260D01*
X629960Y-414940D01*
X630280Y-411320D01*
X630280Y-398260D01*
X595280Y-398260D01*
G37*
G36*
X39680Y-431280D02*
G01*
X54720Y-431280D01*
X54720Y-398260D01*
X19720Y-398260D01*
X19720Y-411320D01*
X20040Y-414940D01*
X20920Y-418260D01*
X22380Y-421380D01*
X24360Y-424200D01*
X26800Y-426640D01*
X29620Y-428620D01*
X32740Y-430080D01*
X36060Y-430959D01*
G37*
G36*
X539780Y-431280D02*
G01*
X554820Y-431280D01*
X554820Y-398260D01*
X519820Y-398260D01*
X519820Y-411320D01*
X520140Y-414940D01*
X521019Y-418260D01*
X522480Y-421380D01*
X524460Y-424200D01*
X526900Y-426640D01*
X529720Y-428620D01*
X532840Y-430080D01*
X536160Y-430959D01*
G37*
G36*
X326780Y-368960D02*
G01*
X333860Y-368420D01*
X340840Y-367140D01*
X347660Y-365160D01*
X354240Y-362480D01*
X360520Y-359140D01*
X366420Y-355180D01*
X371860Y-350640D01*
X376820Y-345540D01*
X381240Y-339980D01*
X385040Y-333980D01*
X388220Y-327620D01*
X390720Y-320980D01*
X392540Y-314120D01*
X393620Y-307100D01*
X394000Y-300000D01*
X393620Y-292900D01*
X392540Y-285880D01*
X390720Y-279020D01*
X388220Y-272380D01*
X385040Y-266020D01*
X381240Y-260020D01*
X376820Y-254460D01*
X371860Y-249360D01*
X366420Y-244820D01*
X360520Y-240859D01*
X354240Y-237520D01*
X347660Y-234840D01*
X340840Y-232860D01*
X333860Y-231580D01*
X326780Y-231040D01*
X319680Y-231220D01*
X312640Y-232120D01*
X305720Y-233760D01*
X299000Y-236100D01*
X292580Y-239100D01*
X286480Y-242760D01*
X280800Y-247020D01*
X275600Y-251840D01*
X270900Y-257180D01*
X266780Y-262980D01*
X263280Y-269160D01*
X260440Y-275660D01*
X258280Y-282420D01*
X256820Y-289380D01*
X256100Y-296440D01*
X256100Y-303560D01*
X256820Y-310620D01*
X258280Y-317580D01*
X260440Y-324340D01*
X263280Y-330840D01*
X266780Y-337020D01*
X270900Y-342819D01*
X275600Y-348160D01*
X280800Y-352980D01*
X286480Y-357239D01*
X292580Y-360900D01*
X299000Y-363900D01*
X305720Y-366240D01*
X312640Y-367879D01*
X319680Y-368780D01*
G37*
G36*
X688640Y-357320D02*
G01*
X688640Y-322180D01*
X662540Y-322180D01*
X662860Y-326760D01*
X663900Y-331760D01*
X665620Y-336599D01*
X667960Y-341140D01*
X670920Y-345319D01*
X674400Y-349060D01*
X678379Y-352280D01*
X682760Y-354940D01*
X687440Y-356980D01*
G37*
G36*
X662540Y-277820D02*
G01*
X688640Y-277820D01*
X688640Y-242680D01*
X687440Y-243020D01*
X682760Y-245060D01*
X678379Y-247719D01*
X674400Y-250940D01*
X670920Y-254680D01*
X667960Y-258860D01*
X665620Y-263400D01*
X663900Y-268240D01*
X662860Y-273240D01*
G37*
G36*
X175960Y-188680D02*
G01*
X274040Y-188680D01*
X277640Y-188359D01*
X280980Y-187480D01*
X284100Y-186020D01*
X286920Y-184040D01*
X289360Y-181600D01*
X291340Y-178780D01*
X292800Y-175660D01*
X293680Y-172340D01*
X294000Y-168720D01*
X294000Y-31280D01*
X293680Y-27660D01*
X292800Y-24340D01*
X291340Y-21220D01*
X289360Y-18400D01*
X286920Y-15960D01*
X284100Y-13980D01*
X280980Y-12520D01*
X277640Y-11640D01*
X274040Y-11319D01*
X175960Y-11319D01*
X172360Y-11640D01*
X169020Y-12520D01*
X165900Y-13980D01*
X163080Y-15960D01*
X160640Y-18400D01*
X158660Y-21220D01*
X157220Y-24340D01*
X156320Y-27660D01*
X156000Y-31280D01*
X156000Y-168720D01*
X156320Y-172340D01*
X157220Y-175660D01*
X158660Y-178780D01*
X160640Y-181600D01*
X163080Y-184040D01*
X165900Y-186020D01*
X169020Y-187480D01*
X172360Y-188359D01*
G37*
G36*
X325959Y-188680D02*
G01*
X424040Y-188680D01*
X427640Y-188359D01*
X430980Y-187480D01*
X434099Y-186020D01*
X436920Y-184040D01*
X439360Y-181600D01*
X441340Y-178780D01*
X442800Y-175660D01*
X443680Y-172340D01*
X444000Y-168720D01*
X444000Y-31280D01*
X443680Y-27660D01*
X442800Y-24340D01*
X441340Y-21220D01*
X439360Y-18400D01*
X436920Y-15960D01*
X434099Y-13980D01*
X430980Y-12520D01*
X427640Y-11640D01*
X424040Y-11319D01*
X325959Y-11319D01*
X322360Y-11640D01*
X319020Y-12520D01*
X315900Y-13980D01*
X313080Y-15960D01*
X310640Y-18400D01*
X308660Y-21220D01*
X307220Y-24340D01*
X306320Y-27660D01*
X306000Y-31280D01*
X306000Y-168720D01*
X306320Y-172340D01*
X307220Y-175660D01*
X308660Y-178780D01*
X310640Y-181600D01*
X313080Y-184040D01*
X315900Y-186020D01*
X319020Y-187480D01*
X322360Y-188359D01*
G37*

%LPD*%
D11*
X897500Y-825000D02*
G01*
X725000Y-825000D01*
D12*
X1025500Y-525000D02*
G01*
X1025000Y-825000D01*
X897500Y-825000D01*
D13*
X525000Y-100000D02*
G01*
X575000Y-270000D01*
X575000Y-270000D02*
G01*
X475000Y-272399D01*
X475000Y-327500D02*
G01*
X450000Y-525000D01*
X175000Y-327600D02*
G01*
X175000Y-425000D01*
X350000Y-425000D01*
X350000Y-525000D01*
X175000Y-272399D02*
G01*
X75000Y-270000D01*
X75000Y-270000D02*
G01*
X75000Y-100000D01*
X250000Y-825000D02*
G01*
X100000Y-725000D01*
D12*
X725000Y-75000D02*
G01*
X897500Y-75000D01*
X897500Y-75000D02*
G01*
X1025000Y-75000D01*
X1025500Y-375000D01*
X1375000Y-75000D02*
G01*
X1202500Y-75000D01*
X1202500Y-75000D02*
G01*
X1125000Y-225000D01*
X1125000Y-675000D02*
G01*
X1202500Y-825000D01*
X1375000Y-825000D02*
G01*
X1202500Y-825000D01*
G36*
X653499Y-584600D02*
G01*
X716500Y-584600D01*
X716500Y-655500D01*
X653499Y-655500D01*
G37*
D15*
G01*
X575050Y-270000D03*
G01*
X575050Y-380000D03*
G01*
X74949Y-270000D03*
G01*
X74949Y-380000D03*
G36*
X656100Y-874200D02*
G01*
X656100Y-775799D01*
X793899Y-775799D01*
X793899Y-874200D01*
G37*
D16*
G01*
X725000Y-75000D03*
G01*
X1375000Y-825000D03*
G01*
X1375000Y-75000D03*
G36*
X1443900Y-475799D02*
G01*
X1443900Y-574200D01*
X1306099Y-574200D01*
X1306099Y-475799D01*
G37*
G36*
X25787Y-31102D02*
G01*
X124212Y-31102D01*
X124212Y-168897D01*
X25787Y-168897D01*
G37*
D17*
G01*
X525000Y-100000D03*
D16*
G01*
X1375000Y-225000D03*
G36*
X496653Y-252752D02*
G01*
X496653Y-292121D01*
X453346Y-292121D01*
X453346Y-252752D01*
G37*
G36*
X496653Y-307869D02*
G01*
X496653Y-347240D01*
X453346Y-347240D01*
X453346Y-307869D01*
G37*
D18*
G01*
X175000Y-272440D03*
G01*
X175000Y-327559D03*
D19*
G01*
X1115500Y-525000D03*
D20*
G01*
X1025500Y-525000D03*
G01*
X934499Y-525000D03*
D19*
G01*
X1115500Y-375000D03*
D20*
G01*
X1025500Y-375000D03*
G01*
X934499Y-375000D03*
D21*
G01*
X1125000Y-675000D03*
G01*
X925000Y-675000D03*
G01*
X1125000Y-225000D03*
G01*
X925000Y-225000D03*
G36*
X763499Y-584600D02*
G01*
X826500Y-584600D01*
X826500Y-655500D01*
X763499Y-655500D01*
G37*
D22*
G01*
X100000Y-625000D03*
D23*
G01*
X100000Y-725000D03*
D24*
G01*
X550000Y-525000D03*
D25*
G01*
X450000Y-525000D03*
G01*
X350000Y-525000D03*
G01*
X250000Y-525000D03*
G01*
X250000Y-825000D03*
G01*
X350000Y-825000D03*
G01*
X450000Y-825000D03*
G01*
X550000Y-825000D03*
D26*
G01*
X897500Y-825000D03*
G01*
X1202500Y-825000D03*
G01*
X897500Y-75000D03*
G01*
X1202500Y-75000D03*
G36*
X1443900Y-625799D02*
G01*
X1443900Y-724200D01*
X1306099Y-724200D01*
X1306099Y-625799D01*
G37*
G36*
X175787Y-31102D02*
G01*
X274212Y-31102D01*
X274212Y-168897D01*
X175787Y-168897D01*
G37*
G36*
X325787Y-31102D02*
G01*
X424212Y-31102D01*
X424212Y-168897D01*
X325787Y-168897D01*
G37*
G36*
X1306099Y-424200D02*
G01*
X1306099Y-325799D01*
X1443900Y-325799D01*
X1443900Y-424200D01*
G37*
D27*
X700000Y-278346D02*
G01*
X700000Y-321653D01*
X750000Y-278346D02*
G01*
X750000Y-321653D01*
X800000Y-278346D02*
G01*
X800000Y-321653D01*
M02*
