M48
INCH,LZ
;FILE_FORMAT=2:4
;TYPE=PLATED
;Layer: Drill PTH
;EasyEDA v6.4.17, 2021-03-05T12:05:08+01:00
;f60f8210386e4bb8a37d6fc626a43cf4,a095d68295bf4de09e4161802e6eaeab,10
;Gerber Generator version 0.2
;Holesize 1 = 0.0200 inch
T01C0.0200
;Holesize 2 = 0.0280 inch
T02C0.0280
;Holesize 3 = 0.0390 inch
T03C0.0390
;Holesize 4 = 0.0430 inch
T04C0.0430
;Holesize 5 = 0.0470 inch
T05C0.0470
%
G05
G90
T01
X007950Y-006201
X013750Y-006750
X002250Y-001000
X003750Y-001000
X013750Y-003750
T02
X007000Y-003000
X007500Y-003000
X008000Y-003000
T03
X001000Y-006250
X001000Y-007250
X005500Y-005250
X004500Y-005250
X003500Y-005250
X002500Y-005250
X002500Y-008250
X003500Y-008250
X004500Y-008250
X005500Y-008250
T04
X011155Y-005250
X010255Y-005250
X009345Y-005250
X011155Y-003750
X010255Y-003750
X009345Y-003750
T05
X011250Y-006750
X009250Y-006750
X011250Y-002250
X009250Y-002250
X008975Y-008250
X012025Y-008250
X008975Y-000750
X012025Y-000750
M30
