G04 Layer: TopSolderMaskLayer*
G04 EasyEDA v6.4.17, 2021-03-05T12:05:08+01:00*
G04 f60f8210386e4bb8a37d6fc626a43cf4,a095d68295bf4de09e4161802e6eaeab,10*
G04 Gerber Generator version 0.2*
G04 Scale: 100 percent, Rotated: No, Reflected: No *
G04 Dimensions in inches *
G04 leading zeros omitted , absolute positions ,3 integer and 6 decimal *
%FSLAX36Y36*%
%MOIN*%

%ADD37C,0.0434*%
%ADD39C,0.0749*%
%ADD40C,0.0867*%
%ADD44C,0.0828*%
%ADD46C,0.0730*%
%ADD48C,0.0930*%

%LPD*%
D37*
X700000Y-278346D02*
G01*
X700000Y-321653D01*
X750000Y-278346D02*
G01*
X750000Y-321653D01*
X800000Y-278346D02*
G01*
X800000Y-321653D01*
G36*
X1078000Y-566500D02*
G01*
X1078000Y-483499D01*
X1153000Y-483499D01*
X1153000Y-566500D01*
G37*
D39*
G01*
X1025500Y-525000D03*
G01*
X934499Y-525000D03*
G36*
X1078000Y-416500D02*
G01*
X1078000Y-333499D01*
X1153000Y-333499D01*
X1153000Y-416500D01*
G37*
G01*
X1025500Y-375000D03*
G01*
X934499Y-375000D03*
D40*
G01*
X1125000Y-675000D03*
G01*
X925000Y-675000D03*
G01*
X1125000Y-225000D03*
G01*
X925000Y-225000D03*
G36*
X649499Y-659499D02*
G01*
X649499Y-580599D01*
X720500Y-580599D01*
X720500Y-659499D01*
G37*
G36*
X759499Y-659499D02*
G01*
X759499Y-580599D01*
X830500Y-580599D01*
X830500Y-659499D01*
G37*
G36*
X535599Y-305500D02*
G01*
X535599Y-234499D01*
X614499Y-234499D01*
X614499Y-305500D01*
G37*
G36*
X535599Y-415500D02*
G01*
X535599Y-344499D01*
X614499Y-344499D01*
X614499Y-415500D01*
G37*
G36*
X35500Y-305500D02*
G01*
X35500Y-234499D01*
X114400Y-234499D01*
X114400Y-305500D01*
G37*
G36*
X35500Y-415500D02*
G01*
X35500Y-344499D01*
X114400Y-344499D01*
X114400Y-415500D01*
G37*
G36*
X58600Y-666399D02*
G01*
X58600Y-583600D01*
X141399Y-583600D01*
X141399Y-666399D01*
G37*
D44*
G01*
X100000Y-725000D03*
G36*
X513499Y-556500D02*
G01*
X513499Y-493499D01*
X586500Y-493499D01*
X586500Y-556500D01*
G37*
D46*
G01*
X450000Y-525000D03*
G01*
X350000Y-525000D03*
G01*
X250000Y-525000D03*
G01*
X250000Y-825000D03*
G01*
X350000Y-825000D03*
G01*
X450000Y-825000D03*
G01*
X550000Y-825000D03*
G36*
X652199Y-878099D02*
G01*
X652199Y-771900D01*
X797800Y-771900D01*
X797800Y-878099D01*
G37*
G36*
X652199Y-128099D02*
G01*
X652199Y-21900D01*
X797800Y-21900D01*
X797800Y-128099D01*
G37*
G36*
X1302200Y-878200D02*
G01*
X1302200Y-771900D01*
X1447799Y-771900D01*
X1447799Y-878200D01*
G37*
G36*
X1302200Y-128099D02*
G01*
X1302200Y-21900D01*
X1447799Y-21900D01*
X1447799Y-128099D01*
G37*
D48*
G01*
X897500Y-825000D03*
G01*
X1202500Y-825000D03*
G01*
X897500Y-75000D03*
G01*
X1202500Y-75000D03*
G36*
X1302200Y-578099D02*
G01*
X1302200Y-471900D01*
X1447799Y-471900D01*
X1447799Y-578099D01*
G37*
G36*
X1302200Y-728099D02*
G01*
X1302200Y-621900D01*
X1447799Y-621900D01*
X1447799Y-728099D01*
G37*
G36*
X21900Y-172800D02*
G01*
X21900Y-27199D01*
X128200Y-27199D01*
X128200Y-172800D01*
G37*
G36*
X171900Y-172800D02*
G01*
X171900Y-27199D01*
X278200Y-27199D01*
X278200Y-172800D01*
G37*
G36*
X471900Y-172800D02*
G01*
X471900Y-27199D01*
X578099Y-27199D01*
X578099Y-172800D01*
G37*
G36*
X321900Y-172800D02*
G01*
X321900Y-27199D01*
X428200Y-27199D01*
X428200Y-172800D01*
G37*
G36*
X1302200Y-278099D02*
G01*
X1302200Y-171900D01*
X1447799Y-171900D01*
X1447799Y-278099D01*
G37*
G36*
X1302200Y-428099D02*
G01*
X1302200Y-321900D01*
X1447799Y-321900D01*
X1447799Y-428099D01*
G37*
G36*
X449299Y-296100D02*
G01*
X449299Y-248800D01*
X500700Y-248800D01*
X500700Y-296100D01*
G37*
G36*
X449299Y-351199D02*
G01*
X449299Y-303899D01*
X500700Y-303899D01*
X500700Y-351199D01*
G37*
G36*
X149299Y-296100D02*
G01*
X149299Y-248800D01*
X200700Y-248800D01*
X200700Y-296100D01*
G37*
G36*
X149299Y-351199D02*
G01*
X149299Y-303899D01*
X200700Y-303899D01*
X200700Y-351199D01*
G37*
M02*
