G04 Layer: TopSilkLayer*
G04 EasyEDA v6.4.17, 2021-03-05T12:05:08+01:00*
G04 f60f8210386e4bb8a37d6fc626a43cf4,a095d68295bf4de09e4161802e6eaeab,10*
G04 Gerber Generator version 0.2*
G04 Scale: 100 percent, Rotated: No, Reflected: No *
G04 Dimensions in inches *
G04 leading zeros omitted , absolute positions ,3 integer and 6 decimal *
%FSLAX36Y36*%
%MOIN*%

%ADD29C,0.0100*%
%ADD30C,0.0080*%
%ADD31C,0.0080*%
%ADD32C,0.0090*%
%ADD33C,0.0079*%
%ADD34C,0.0040*%
%ADD35C,0.0060*%

%LPD*%
D34*
X80500Y-536905D02*
G01*
X79099Y-534106D01*
X76399Y-531406D01*
X73600Y-530005D01*
X68200Y-530005D01*
X65500Y-531406D01*
X62699Y-534106D01*
X61399Y-536905D01*
X60000Y-540906D01*
X60000Y-547806D01*
X61399Y-551905D01*
X62699Y-554605D01*
X65500Y-557305D01*
X68200Y-558706D01*
X73600Y-558706D01*
X76399Y-557305D01*
X79099Y-554605D01*
X80500Y-551905D01*
X80500Y-547806D01*
X73600Y-547806D02*
G01*
X80500Y-547806D01*
X89499Y-530005D02*
G01*
X89499Y-558706D01*
X89499Y-530005D02*
G01*
X108499Y-558706D01*
X108499Y-530005D02*
G01*
X108499Y-558706D01*
X117500Y-530005D02*
G01*
X117500Y-558706D01*
X117500Y-530005D02*
G01*
X127100Y-530005D01*
X131199Y-531406D01*
X133899Y-534106D01*
X135300Y-536905D01*
X136599Y-540906D01*
X136599Y-547806D01*
X135300Y-551905D01*
X133899Y-554605D01*
X131199Y-557305D01*
X127100Y-558706D01*
X117500Y-558706D01*
X704108Y-379980D02*
G01*
X690408Y-408681D01*
X685007Y-379980D02*
G01*
X704108Y-379980D01*
X719908Y-379980D02*
G01*
X715808Y-381381D01*
X714407Y-384081D01*
X714407Y-386781D01*
X715808Y-389580D01*
X718508Y-390880D01*
X724007Y-392280D01*
X728108Y-393681D01*
X730808Y-396381D01*
X732208Y-399081D01*
X732208Y-403180D01*
X730808Y-405880D01*
X729407Y-407280D01*
X725408Y-408681D01*
X719908Y-408681D01*
X715808Y-407280D01*
X714407Y-405880D01*
X713108Y-403180D01*
X713108Y-399081D01*
X714407Y-396381D01*
X717208Y-393681D01*
X721307Y-392280D01*
X726707Y-390880D01*
X729407Y-389580D01*
X730808Y-386781D01*
X730808Y-384081D01*
X729407Y-381381D01*
X725408Y-379980D01*
X719908Y-379980D01*
X741208Y-379980D02*
G01*
X741208Y-408681D01*
X741208Y-408681D02*
G01*
X757507Y-408681D01*
X774708Y-379980D02*
G01*
X770608Y-381381D01*
X767908Y-385480D01*
X766507Y-392280D01*
X766507Y-396381D01*
X767908Y-403180D01*
X770608Y-407280D01*
X774708Y-408681D01*
X777408Y-408681D01*
X781507Y-407280D01*
X784308Y-403180D01*
X785608Y-396381D01*
X785608Y-392280D01*
X784308Y-385480D01*
X781507Y-381381D01*
X777408Y-379980D01*
X774708Y-379980D01*
X811008Y-379980D02*
G01*
X797408Y-379980D01*
X796008Y-392280D01*
X797408Y-390880D01*
X801408Y-389580D01*
X805507Y-389580D01*
X809607Y-390880D01*
X812408Y-393681D01*
X813708Y-397680D01*
X813708Y-400480D01*
X812408Y-404580D01*
X809607Y-407280D01*
X805507Y-408681D01*
X801408Y-408681D01*
X797408Y-407280D01*
X796008Y-405880D01*
X794607Y-403180D01*
X1210604Y-525709D02*
G01*
X1209503Y-525709D01*
X1207204Y-524508D01*
X1206103Y-523409D01*
X1205003Y-521109D01*
X1205003Y-516608D01*
X1206103Y-514308D01*
X1207204Y-513209D01*
X1209503Y-512008D01*
X1211804Y-512008D01*
X1214103Y-513209D01*
X1217503Y-515408D01*
X1228804Y-526808D01*
X1228804Y-510909D01*
X1208404Y-487509D02*
G01*
X1206103Y-489708D01*
X1205003Y-493209D01*
X1205003Y-497708D01*
X1206103Y-501109D01*
X1208404Y-503409D01*
X1210604Y-503409D01*
X1212903Y-502208D01*
X1214103Y-501109D01*
X1215204Y-498809D01*
X1217503Y-492008D01*
X1218603Y-489708D01*
X1219704Y-488609D01*
X1222003Y-487509D01*
X1225403Y-487509D01*
X1227704Y-489708D01*
X1228804Y-493209D01*
X1228804Y-497708D01*
X1227704Y-501109D01*
X1225403Y-503409D01*
X1205003Y-480009D02*
G01*
X1228804Y-480009D01*
X1205003Y-480009D02*
G01*
X1205003Y-472008D01*
X1206103Y-468609D01*
X1208404Y-466309D01*
X1210604Y-465208D01*
X1214103Y-464108D01*
X1219704Y-464108D01*
X1223104Y-465208D01*
X1225403Y-466309D01*
X1227704Y-468609D01*
X1228804Y-472008D01*
X1228804Y-480009D01*
X1212903Y-441808D02*
G01*
X1216304Y-442908D01*
X1218603Y-445208D01*
X1219704Y-448609D01*
X1219704Y-449708D01*
X1218603Y-453209D01*
X1216304Y-455408D01*
X1212903Y-456608D01*
X1211804Y-456608D01*
X1208404Y-455408D01*
X1206103Y-453209D01*
X1205003Y-449708D01*
X1205003Y-448609D01*
X1206103Y-445208D01*
X1208404Y-442908D01*
X1212903Y-441808D01*
X1218603Y-441808D01*
X1224304Y-442908D01*
X1227704Y-445208D01*
X1228804Y-448609D01*
X1228804Y-450909D01*
X1227704Y-454308D01*
X1225403Y-455408D01*
X1205003Y-428609D02*
G01*
X1206103Y-432008D01*
X1208404Y-433209D01*
X1210604Y-433209D01*
X1212903Y-432008D01*
X1214103Y-429708D01*
X1215204Y-425208D01*
X1216304Y-421808D01*
X1218603Y-419508D01*
X1220904Y-418409D01*
X1224304Y-418409D01*
X1226603Y-419508D01*
X1227704Y-420709D01*
X1228804Y-424108D01*
X1228804Y-428609D01*
X1227704Y-432008D01*
X1226603Y-433209D01*
X1224304Y-434308D01*
X1220904Y-434308D01*
X1218603Y-433209D01*
X1216304Y-430909D01*
X1215204Y-427509D01*
X1214103Y-422908D01*
X1212903Y-420709D01*
X1210604Y-419508D01*
X1208404Y-419508D01*
X1206103Y-420709D01*
X1205003Y-424108D01*
X1205003Y-428609D01*
X1205003Y-397208D02*
G01*
X1205003Y-408609D01*
X1215204Y-409708D01*
X1214103Y-408609D01*
X1212903Y-405208D01*
X1212903Y-401808D01*
X1214103Y-398409D01*
X1216304Y-396109D01*
X1219704Y-395009D01*
X1222003Y-395009D01*
X1225403Y-396109D01*
X1227704Y-398409D01*
X1228804Y-401808D01*
X1228804Y-405208D01*
X1227704Y-408609D01*
X1226603Y-409708D01*
X1224304Y-410909D01*
X1190015Y-754090D02*
G01*
X1213914Y-754090D01*
X1190015Y-754090D02*
G01*
X1190015Y-743890D01*
X1191215Y-740491D01*
X1192314Y-739290D01*
X1194615Y-738191D01*
X1196814Y-738191D01*
X1199115Y-739290D01*
X1200214Y-740491D01*
X1201414Y-743890D01*
X1201414Y-754090D01*
X1201414Y-746091D02*
G01*
X1213914Y-738191D01*
X1190015Y-730691D02*
G01*
X1213914Y-714791D01*
X1190015Y-714791D02*
G01*
X1213914Y-730691D01*
X1190015Y-707291D02*
G01*
X1213914Y-707291D01*
X1190015Y-707291D02*
G01*
X1190015Y-692491D01*
X1201414Y-707291D02*
G01*
X1201414Y-698191D01*
X1213914Y-707291D02*
G01*
X1213914Y-692491D01*
X1190015Y-684991D02*
G01*
X1213914Y-684991D01*
X1190015Y-684991D02*
G01*
X1190015Y-670190D01*
X1201414Y-684991D02*
G01*
X1201414Y-675891D01*
X1190015Y-655891D02*
G01*
X1191215Y-659290D01*
X1194615Y-661590D01*
X1200214Y-662690D01*
X1203715Y-662690D01*
X1209314Y-661590D01*
X1212714Y-659290D01*
X1213914Y-655891D01*
X1213914Y-653591D01*
X1212714Y-650190D01*
X1209314Y-647991D01*
X1203715Y-646790D01*
X1200214Y-646790D01*
X1194615Y-647991D01*
X1191215Y-650190D01*
X1190015Y-653591D01*
X1190015Y-655891D01*
X1190015Y-625691D02*
G01*
X1190015Y-637091D01*
X1200214Y-638191D01*
X1199115Y-637091D01*
X1198014Y-633591D01*
X1198014Y-630190D01*
X1199115Y-626790D01*
X1201414Y-624591D01*
X1204814Y-623391D01*
X1207115Y-623391D01*
X1210514Y-624591D01*
X1212714Y-626790D01*
X1213914Y-630190D01*
X1213914Y-633591D01*
X1212714Y-637091D01*
X1211615Y-638191D01*
X1209314Y-639290D01*
X1190015Y-609090D02*
G01*
X1191215Y-612491D01*
X1194615Y-614791D01*
X1200214Y-615891D01*
X1203715Y-615891D01*
X1209314Y-614791D01*
X1212714Y-612491D01*
X1213914Y-609090D01*
X1213914Y-606790D01*
X1212714Y-603391D01*
X1209314Y-601091D01*
X1203715Y-599991D01*
X1200214Y-599991D01*
X1194615Y-601091D01*
X1191215Y-603391D01*
X1190015Y-606790D01*
X1190015Y-609090D01*
X1189983Y-304101D02*
G01*
X1213783Y-304101D01*
X1189983Y-304101D02*
G01*
X1189983Y-293901D01*
X1191082Y-290500D01*
X1192183Y-289400D01*
X1194483Y-288200D01*
X1196782Y-288200D01*
X1199083Y-289400D01*
X1200182Y-290500D01*
X1201283Y-293901D01*
X1201283Y-304101D01*
X1201283Y-296201D02*
G01*
X1213783Y-288200D01*
X1189983Y-280700D02*
G01*
X1213783Y-264801D01*
X1189983Y-264801D02*
G01*
X1213783Y-280700D01*
X1189983Y-257301D02*
G01*
X1213783Y-257301D01*
X1189983Y-257301D02*
G01*
X1189983Y-242501D01*
X1201283Y-257301D02*
G01*
X1201283Y-248200D01*
X1213783Y-257301D02*
G01*
X1213783Y-242501D01*
X1189983Y-235001D02*
G01*
X1213783Y-235001D01*
X1189983Y-235001D02*
G01*
X1189983Y-220300D01*
X1201283Y-235001D02*
G01*
X1201283Y-225900D01*
X1189983Y-205900D02*
G01*
X1191082Y-209400D01*
X1194483Y-211601D01*
X1200182Y-212800D01*
X1203582Y-212800D01*
X1209282Y-211601D01*
X1212682Y-209400D01*
X1213783Y-205900D01*
X1213783Y-203701D01*
X1212682Y-200300D01*
X1209282Y-198000D01*
X1203582Y-196900D01*
X1200182Y-196900D01*
X1194483Y-198000D01*
X1191082Y-200300D01*
X1189983Y-203701D01*
X1189983Y-205900D01*
X1189983Y-175700D02*
G01*
X1189983Y-187100D01*
X1200182Y-188200D01*
X1199083Y-187100D01*
X1197883Y-183701D01*
X1197883Y-180300D01*
X1199083Y-176900D01*
X1201283Y-174600D01*
X1204683Y-173400D01*
X1206983Y-173400D01*
X1210383Y-174600D01*
X1212682Y-176900D01*
X1213783Y-180300D01*
X1213783Y-183701D01*
X1212682Y-187100D01*
X1211583Y-188200D01*
X1209282Y-189400D01*
X1189983Y-159101D02*
G01*
X1191082Y-162501D01*
X1194483Y-164801D01*
X1200182Y-165900D01*
X1203582Y-165900D01*
X1209282Y-164801D01*
X1212682Y-162501D01*
X1213783Y-159101D01*
X1213783Y-156900D01*
X1212682Y-153400D01*
X1209282Y-151201D01*
X1203582Y-150001D01*
X1200182Y-150001D01*
X1194483Y-151201D01*
X1191082Y-153400D01*
X1189983Y-156900D01*
X1189983Y-159101D01*
X660000Y-525511D02*
G01*
X662699Y-524110D01*
X666799Y-520010D01*
X666799Y-548710D01*
X684000Y-520010D02*
G01*
X679899Y-521410D01*
X677199Y-525511D01*
X675799Y-532310D01*
X675799Y-536410D01*
X677199Y-543211D01*
X679899Y-547310D01*
X684000Y-548710D01*
X686700Y-548710D01*
X690799Y-547310D01*
X693499Y-543211D01*
X694899Y-536410D01*
X694899Y-532310D01*
X693499Y-525511D01*
X690799Y-521410D01*
X686700Y-520010D01*
X684000Y-520010D01*
X712100Y-520010D02*
G01*
X708000Y-521410D01*
X705300Y-525511D01*
X703899Y-532310D01*
X703899Y-536410D01*
X705300Y-543211D01*
X708000Y-547310D01*
X712100Y-548710D01*
X714800Y-548710D01*
X718899Y-547310D01*
X721599Y-543211D01*
X723000Y-536410D01*
X723000Y-532310D01*
X721599Y-525511D01*
X718899Y-521410D01*
X714800Y-520010D01*
X712100Y-520010D01*
X731999Y-529610D02*
G01*
X731999Y-548710D01*
X731999Y-535010D02*
G01*
X736100Y-530911D01*
X738800Y-529610D01*
X742899Y-529610D01*
X745599Y-530911D01*
X746999Y-535010D01*
X746999Y-548710D01*
X755999Y-520010D02*
G01*
X755999Y-548710D01*
X755999Y-520010D02*
G01*
X773699Y-520010D01*
X755999Y-533710D02*
G01*
X766900Y-533710D01*
X545001Y-450506D02*
G01*
X547701Y-449106D01*
X551801Y-445005D01*
X551801Y-473706D01*
X577202Y-445005D02*
G01*
X563501Y-445005D01*
X562202Y-457305D01*
X563501Y-455905D01*
X567602Y-454605D01*
X571702Y-454605D01*
X575801Y-455905D01*
X578501Y-458706D01*
X579902Y-462806D01*
X579902Y-465506D01*
X578501Y-469605D01*
X575801Y-472305D01*
X571702Y-473706D01*
X567602Y-473706D01*
X563501Y-472305D01*
X562202Y-470905D01*
X560801Y-468206D01*
X597101Y-445005D02*
G01*
X593002Y-446406D01*
X590302Y-450506D01*
X588901Y-457305D01*
X588901Y-461406D01*
X590302Y-468206D01*
X593002Y-472305D01*
X597101Y-473706D01*
X599801Y-473706D01*
X603901Y-472305D01*
X606601Y-468206D01*
X608002Y-461406D01*
X608002Y-457305D01*
X606601Y-450506D01*
X603901Y-446406D01*
X599801Y-445005D01*
X597101Y-445005D01*
X42305Y-449099D02*
G01*
X45005Y-447699D01*
X49104Y-443600D01*
X49104Y-472300D01*
X74504Y-443600D02*
G01*
X60805Y-443600D01*
X59504Y-455900D01*
X60805Y-454499D01*
X64904Y-453200D01*
X69005Y-453200D01*
X73105Y-454499D01*
X75805Y-457300D01*
X77204Y-461399D01*
X77204Y-464099D01*
X75805Y-468200D01*
X73105Y-470900D01*
X69005Y-472300D01*
X64904Y-472300D01*
X60805Y-470900D01*
X59504Y-469499D01*
X58105Y-466799D01*
X94405Y-443600D02*
G01*
X90304Y-445000D01*
X87604Y-449099D01*
X86204Y-455900D01*
X86204Y-460000D01*
X87604Y-466799D01*
X90304Y-470900D01*
X94405Y-472300D01*
X97105Y-472300D01*
X101204Y-470900D01*
X103904Y-466799D01*
X105304Y-460000D01*
X105304Y-455900D01*
X103904Y-449099D01*
X101204Y-445000D01*
X97105Y-443600D01*
X94405Y-443600D01*
X60000Y-790000D02*
G01*
X60000Y-818699D01*
X60000Y-790000D02*
G01*
X72300Y-790000D01*
X76399Y-791399D01*
X77699Y-792800D01*
X79099Y-795500D01*
X79099Y-798200D01*
X77699Y-800999D01*
X76399Y-802300D01*
X72300Y-803699D01*
X60000Y-803699D01*
X69499Y-803699D02*
G01*
X79099Y-818699D01*
X99000Y-790000D02*
G01*
X88099Y-818699D01*
X99000Y-790000D02*
G01*
X109899Y-818699D01*
X92199Y-809099D02*
G01*
X105799Y-809099D01*
X120300Y-796900D02*
G01*
X120300Y-795500D01*
X121599Y-792800D01*
X123000Y-791399D01*
X125700Y-790000D01*
X131199Y-790000D01*
X133899Y-791399D01*
X135300Y-792800D01*
X136599Y-795500D01*
X136599Y-798200D01*
X135300Y-800999D01*
X132500Y-805000D01*
X118899Y-818699D01*
X138000Y-818699D01*
D35*
X325000Y-650007D02*
G01*
X325000Y-702507D01*
X325000Y-650007D02*
G01*
X347500Y-650007D01*
X355000Y-652507D01*
X357500Y-655007D01*
X360000Y-660007D01*
X360000Y-667507D01*
X357500Y-672507D01*
X355000Y-675007D01*
X347500Y-677507D01*
X325000Y-677507D01*
X376500Y-650007D02*
G01*
X376500Y-702507D01*
X430500Y-662507D02*
G01*
X428000Y-657507D01*
X423000Y-652507D01*
X418000Y-650007D01*
X408000Y-650007D01*
X403000Y-652507D01*
X398000Y-657507D01*
X395500Y-662507D01*
X393000Y-670007D01*
X393000Y-682507D01*
X395500Y-690007D01*
X398000Y-695007D01*
X403000Y-700007D01*
X408000Y-702507D01*
X418000Y-702507D01*
X423000Y-700007D01*
X428000Y-695007D01*
X430500Y-690007D01*
D34*
X660000Y-721302D02*
G01*
X660000Y-750001D01*
X660000Y-721302D02*
G01*
X672300Y-721302D01*
X676399Y-722701D01*
X677699Y-724101D01*
X679099Y-726801D01*
X679099Y-729502D01*
X677699Y-732202D01*
X676399Y-733602D01*
X672300Y-735001D01*
X660000Y-735001D02*
G01*
X672300Y-735001D01*
X676399Y-736302D01*
X677699Y-737701D01*
X679099Y-740401D01*
X679099Y-744502D01*
X677699Y-747202D01*
X676399Y-748602D01*
X672300Y-750001D01*
X660000Y-750001D01*
X688099Y-721302D02*
G01*
X689499Y-722701D01*
X690799Y-721302D01*
X689499Y-720001D01*
X688099Y-721302D01*
X689499Y-730902D02*
G01*
X689499Y-750001D01*
X699800Y-721302D02*
G01*
X699800Y-750001D01*
X708800Y-726801D02*
G01*
X711500Y-725401D01*
X715599Y-721302D01*
X715599Y-750001D01*
X724600Y-737701D02*
G01*
X749200Y-737701D01*
X771491Y-168690D02*
G01*
X771491Y-139991D01*
X771491Y-168690D02*
G01*
X759191Y-168690D01*
X755091Y-167291D01*
X753791Y-165891D01*
X752390Y-163191D01*
X752390Y-160491D01*
X753791Y-157791D01*
X755091Y-156390D01*
X759191Y-154991D01*
X771491Y-154991D02*
G01*
X759191Y-154991D01*
X755091Y-153690D01*
X753791Y-152291D01*
X752390Y-149591D01*
X752390Y-145491D01*
X753791Y-142791D01*
X755091Y-141390D01*
X759191Y-139991D01*
X771491Y-139991D01*
X743391Y-168690D02*
G01*
X741990Y-167291D01*
X740691Y-168690D01*
X741990Y-169991D01*
X743391Y-168690D01*
X741990Y-159090D02*
G01*
X741990Y-139991D01*
X731691Y-168690D02*
G01*
X731691Y-139991D01*
X721291Y-161891D02*
G01*
X721291Y-163191D01*
X719991Y-165891D01*
X718591Y-167291D01*
X715891Y-168690D01*
X710390Y-168690D01*
X707690Y-167291D01*
X706291Y-165891D01*
X704991Y-163191D01*
X704991Y-160491D01*
X706291Y-157791D01*
X708991Y-153690D01*
X722690Y-139991D01*
X703591Y-139991D01*
X694591Y-152291D02*
G01*
X669991Y-152291D01*
X1261322Y-869214D02*
G01*
X1290021Y-869214D01*
X1261322Y-869214D02*
G01*
X1261322Y-856914D01*
X1262722Y-852815D01*
X1264121Y-851514D01*
X1266822Y-850115D01*
X1269521Y-850115D01*
X1272322Y-851514D01*
X1273621Y-852815D01*
X1275021Y-856914D01*
X1275021Y-869214D02*
G01*
X1275021Y-856914D01*
X1276322Y-852815D01*
X1277722Y-851514D01*
X1280421Y-850115D01*
X1284521Y-850115D01*
X1287322Y-851514D01*
X1288621Y-852815D01*
X1290021Y-856914D01*
X1290021Y-869214D01*
X1261322Y-841114D02*
G01*
X1262722Y-839814D01*
X1261322Y-838415D01*
X1260021Y-839814D01*
X1261322Y-841114D01*
X1270922Y-839814D02*
G01*
X1290021Y-839814D01*
X1261322Y-829414D02*
G01*
X1290021Y-829414D01*
X1266822Y-820414D02*
G01*
X1265421Y-817714D01*
X1261322Y-813614D01*
X1290021Y-813614D01*
X1265421Y-792314D02*
G01*
X1290021Y-792314D01*
X1277722Y-804614D02*
G01*
X1277722Y-780014D01*
X1261409Y-121397D02*
G01*
X1290009Y-121397D01*
X1261409Y-121397D02*
G01*
X1261409Y-109097D01*
X1262709Y-104998D01*
X1264108Y-103697D01*
X1266809Y-102298D01*
X1269508Y-102298D01*
X1272308Y-103697D01*
X1273608Y-104998D01*
X1275009Y-109097D01*
X1275009Y-121397D02*
G01*
X1275009Y-109097D01*
X1276409Y-104998D01*
X1277709Y-103697D01*
X1280408Y-102298D01*
X1284508Y-102298D01*
X1287308Y-103697D01*
X1288608Y-104998D01*
X1290009Y-109097D01*
X1290009Y-121397D01*
X1261409Y-93297D02*
G01*
X1262709Y-91997D01*
X1261409Y-90597D01*
X1260009Y-91997D01*
X1261409Y-93297D01*
X1270909Y-91997D02*
G01*
X1290009Y-91997D01*
X1261409Y-81597D02*
G01*
X1290009Y-81597D01*
X1268208Y-71197D02*
G01*
X1266809Y-71197D01*
X1264108Y-69897D01*
X1262709Y-68497D01*
X1261409Y-65797D01*
X1261409Y-60297D01*
X1262709Y-57597D01*
X1264108Y-56197D01*
X1266809Y-54897D01*
X1269508Y-54897D01*
X1272308Y-56197D01*
X1276409Y-58998D01*
X1290009Y-72597D01*
X1290009Y-53497D01*
X1265408Y-32197D02*
G01*
X1290009Y-32197D01*
X1277709Y-44497D02*
G01*
X1277709Y-19998D01*
X960000Y-810014D02*
G01*
X960000Y-830513D01*
X961400Y-834614D01*
X964099Y-837314D01*
X968199Y-838714D01*
X970900Y-838714D01*
X975000Y-837314D01*
X977700Y-834614D01*
X979099Y-830513D01*
X979099Y-810014D01*
X988100Y-810014D02*
G01*
X988100Y-838714D01*
X988100Y-810014D02*
G01*
X1005799Y-810014D01*
X988100Y-823714D02*
G01*
X998999Y-823714D01*
X1028500Y-810014D02*
G01*
X1014799Y-829113D01*
X1035299Y-829113D01*
X1028500Y-810014D02*
G01*
X1028500Y-838714D01*
X1052500Y-810014D02*
G01*
X1048400Y-811413D01*
X1045600Y-815513D01*
X1044300Y-822314D01*
X1044300Y-826413D01*
X1045600Y-833213D01*
X1048400Y-837314D01*
X1052500Y-838714D01*
X1055200Y-838714D01*
X1059300Y-837314D01*
X1061999Y-833213D01*
X1063400Y-826413D01*
X1063400Y-822314D01*
X1061999Y-815513D01*
X1059300Y-811413D01*
X1055200Y-810014D01*
X1052500Y-810014D01*
X1080500Y-810014D02*
G01*
X1076499Y-811413D01*
X1073699Y-815513D01*
X1072399Y-822314D01*
X1072399Y-826413D01*
X1073699Y-833213D01*
X1076499Y-837314D01*
X1080500Y-838714D01*
X1083299Y-838714D01*
X1087399Y-837314D01*
X1090100Y-833213D01*
X1091499Y-826413D01*
X1091499Y-822314D01*
X1090100Y-815513D01*
X1087399Y-811413D01*
X1083299Y-810014D01*
X1080500Y-810014D01*
X1119499Y-810014D02*
G01*
X1105900Y-838714D01*
X1100500Y-810014D02*
G01*
X1119499Y-810014D01*
X960000Y-60014D02*
G01*
X960000Y-80513D01*
X961400Y-84614D01*
X964099Y-87314D01*
X968199Y-88713D01*
X970900Y-88713D01*
X975000Y-87314D01*
X977700Y-84614D01*
X979099Y-80513D01*
X979099Y-60014D01*
X988100Y-60014D02*
G01*
X988100Y-88713D01*
X988100Y-60014D02*
G01*
X1005799Y-60014D01*
X988100Y-73713D02*
G01*
X998999Y-73713D01*
X1028500Y-60014D02*
G01*
X1014799Y-79113D01*
X1035299Y-79113D01*
X1028500Y-60014D02*
G01*
X1028500Y-88713D01*
X1052500Y-60014D02*
G01*
X1048400Y-61413D01*
X1045600Y-65513D01*
X1044300Y-72314D01*
X1044300Y-76413D01*
X1045600Y-83213D01*
X1048400Y-87314D01*
X1052500Y-88713D01*
X1055200Y-88713D01*
X1059300Y-87314D01*
X1061999Y-83213D01*
X1063400Y-76413D01*
X1063400Y-72314D01*
X1061999Y-65513D01*
X1059300Y-61413D01*
X1055200Y-60014D01*
X1052500Y-60014D01*
X1080500Y-60014D02*
G01*
X1076499Y-61413D01*
X1073699Y-65513D01*
X1072399Y-72314D01*
X1072399Y-76413D01*
X1073699Y-83213D01*
X1076499Y-87314D01*
X1080500Y-88713D01*
X1083299Y-88713D01*
X1087399Y-87314D01*
X1090100Y-83213D01*
X1091499Y-76413D01*
X1091499Y-72314D01*
X1090100Y-65513D01*
X1087399Y-61413D01*
X1083299Y-60014D01*
X1080500Y-60014D01*
X1119499Y-60014D02*
G01*
X1105900Y-88713D01*
X1100500Y-60014D02*
G01*
X1119499Y-60014D01*
X1265468Y-574648D02*
G01*
X1264067Y-571948D01*
X1259967Y-567847D01*
X1288667Y-567847D01*
X1269567Y-558847D02*
G01*
X1288667Y-558847D01*
X1274967Y-558847D02*
G01*
X1270868Y-554747D01*
X1269567Y-552047D01*
X1269567Y-547948D01*
X1270868Y-545248D01*
X1274967Y-543847D01*
X1288667Y-543847D01*
X1274967Y-543847D02*
G01*
X1270868Y-539747D01*
X1269567Y-537047D01*
X1269567Y-532948D01*
X1270868Y-530248D01*
X1274967Y-528847D01*
X1288667Y-528847D01*
X1259967Y-519848D02*
G01*
X1288667Y-519848D01*
X1259967Y-519848D02*
G01*
X1259967Y-502148D01*
X1273667Y-519848D02*
G01*
X1273667Y-508948D01*
X1264067Y-480848D02*
G01*
X1288667Y-480848D01*
X1276368Y-493148D02*
G01*
X1276368Y-468647D01*
X1265505Y-726095D02*
G01*
X1264104Y-723395D01*
X1260005Y-719295D01*
X1288705Y-719295D01*
X1269605Y-710295D02*
G01*
X1288705Y-710295D01*
X1275005Y-710295D02*
G01*
X1270905Y-706194D01*
X1269605Y-703494D01*
X1269605Y-699394D01*
X1270905Y-696595D01*
X1275005Y-695295D01*
X1288705Y-695295D01*
X1275005Y-695295D02*
G01*
X1270905Y-691194D01*
X1269605Y-688494D01*
X1269605Y-684394D01*
X1270905Y-681595D01*
X1275005Y-680295D01*
X1288705Y-680295D01*
X1260005Y-671295D02*
G01*
X1288705Y-671295D01*
X1260005Y-671295D02*
G01*
X1260005Y-653595D01*
X1273705Y-671295D02*
G01*
X1273705Y-660394D01*
X1276405Y-644594D02*
G01*
X1276405Y-619994D01*
X110689Y-208715D02*
G01*
X110689Y-180014D01*
X91590Y-208715D02*
G01*
X110689Y-189614D01*
X103890Y-196415D02*
G01*
X91590Y-180014D01*
X81289Y-201914D02*
G01*
X81289Y-203215D01*
X79890Y-206015D01*
X78490Y-207314D01*
X75790Y-208715D01*
X70390Y-208715D01*
X67590Y-207314D01*
X66289Y-206015D01*
X64890Y-203215D01*
X64890Y-200515D01*
X66289Y-197815D01*
X68989Y-193715D01*
X82590Y-180014D01*
X63490Y-180014D01*
X42289Y-204614D02*
G01*
X42289Y-180014D01*
X54490Y-192314D02*
G01*
X29989Y-192314D01*
X250689Y-208715D02*
G01*
X250689Y-180014D01*
X231590Y-208715D02*
G01*
X250689Y-189614D01*
X243890Y-196415D02*
G01*
X231590Y-180014D01*
X221289Y-201914D02*
G01*
X221289Y-203215D01*
X219890Y-206015D01*
X218490Y-207314D01*
X215790Y-208715D01*
X210390Y-208715D01*
X207590Y-207314D01*
X206289Y-206015D01*
X204890Y-203215D01*
X204890Y-200515D01*
X206289Y-197815D01*
X208989Y-193715D01*
X222590Y-180014D01*
X203490Y-180014D01*
X194490Y-192314D02*
G01*
X169989Y-192314D01*
X558416Y-208717D02*
G01*
X558416Y-180016D01*
X539317Y-208717D02*
G01*
X558416Y-189616D01*
X551617Y-196417D02*
G01*
X539317Y-180016D01*
X530317Y-203216D02*
G01*
X527617Y-204616D01*
X523517Y-208717D01*
X523517Y-180016D01*
X502217Y-204616D02*
G01*
X502217Y-180016D01*
X514517Y-192316D02*
G01*
X490016Y-192316D01*
X408395Y-208613D02*
G01*
X408395Y-180012D01*
X389295Y-208613D02*
G01*
X408395Y-189612D01*
X401595Y-196412D02*
G01*
X389295Y-180012D01*
X380295Y-203213D02*
G01*
X377595Y-204612D01*
X373494Y-208613D01*
X373494Y-180012D01*
X364495Y-192312D02*
G01*
X339994Y-192312D01*
X1265402Y-279317D02*
G01*
X1264002Y-276617D01*
X1260002Y-272518D01*
X1288602Y-272518D01*
X1266801Y-262118D02*
G01*
X1265402Y-262118D01*
X1262701Y-260718D01*
X1261301Y-259418D01*
X1260002Y-256617D01*
X1260002Y-251217D01*
X1261301Y-248517D01*
X1262701Y-247118D01*
X1265402Y-245718D01*
X1268101Y-245718D01*
X1270901Y-247118D01*
X1275002Y-249818D01*
X1288602Y-263517D01*
X1288602Y-244418D01*
X1260002Y-235417D02*
G01*
X1288602Y-224517D01*
X1260002Y-213618D02*
G01*
X1288602Y-224517D01*
X1264002Y-192318D02*
G01*
X1288602Y-192318D01*
X1276301Y-204618D02*
G01*
X1276301Y-180018D01*
X1266791Y-386201D02*
G01*
X1264090Y-387600D01*
X1261391Y-390300D01*
X1259991Y-393000D01*
X1259991Y-398501D01*
X1261391Y-401201D01*
X1264090Y-404000D01*
X1266791Y-405300D01*
X1270891Y-406700D01*
X1277691Y-406700D01*
X1281791Y-405300D01*
X1284591Y-404000D01*
X1287290Y-401201D01*
X1288590Y-398501D01*
X1288590Y-393000D01*
X1287290Y-390300D01*
X1284591Y-387600D01*
X1281791Y-386201D01*
X1277691Y-386201D01*
X1277691Y-393000D02*
G01*
X1277691Y-386201D01*
X1259991Y-377201D02*
G01*
X1288590Y-377201D01*
X1259991Y-377201D02*
G01*
X1288590Y-358101D01*
X1259991Y-358101D02*
G01*
X1288590Y-358101D01*
X1259991Y-349101D02*
G01*
X1288590Y-349101D01*
X1259991Y-349101D02*
G01*
X1259991Y-339600D01*
X1261391Y-335500D01*
X1264090Y-332800D01*
X1266791Y-331401D01*
X1270891Y-330001D01*
X1277691Y-330001D01*
X1281791Y-331401D01*
X1284591Y-332800D01*
X1287290Y-335500D01*
X1288590Y-339600D01*
X1288590Y-349101D01*
X445893Y-373654D02*
G01*
X432256Y-392746D01*
X452712Y-392746D01*
X445893Y-373654D02*
G01*
X445893Y-402292D01*
X480801Y-373654D02*
G01*
X467166Y-402292D01*
X461712Y-373654D02*
G01*
X480801Y-373654D01*
X497984Y-373654D02*
G01*
X493892Y-375019D01*
X491165Y-379110D01*
X489801Y-385927D01*
X489801Y-390019D01*
X491165Y-396837D01*
X493892Y-400927D01*
X497984Y-402292D01*
X500711Y-402292D01*
X504801Y-400927D01*
X507530Y-396837D01*
X508892Y-390019D01*
X508892Y-385927D01*
X507530Y-379110D01*
X504801Y-375019D01*
X500711Y-373654D01*
X497984Y-373654D01*
X155893Y-373654D02*
G01*
X142256Y-392746D01*
X162712Y-392746D01*
X155893Y-373654D02*
G01*
X155893Y-402292D01*
X190801Y-373654D02*
G01*
X177166Y-402292D01*
X171712Y-373654D02*
G01*
X190801Y-373654D01*
X207984Y-373654D02*
G01*
X203892Y-375019D01*
X201165Y-379110D01*
X199801Y-385927D01*
X199801Y-390019D01*
X201165Y-396837D01*
X203892Y-400927D01*
X207984Y-402292D01*
X210711Y-402292D01*
X214801Y-400927D01*
X217530Y-396837D01*
X218892Y-390019D01*
X218892Y-385927D01*
X217530Y-379110D01*
X214801Y-375019D01*
X210711Y-373654D01*
X207984Y-373654D01*
D29*
X827950Y-359050D02*
G01*
X672049Y-359050D01*
X1194399Y-587998D02*
G01*
X855801Y-588000D01*
X855799Y-477800D02*
G01*
X855801Y-588000D01*
X1194400Y-477800D02*
G01*
X855799Y-477800D01*
X1194400Y-477800D02*
G01*
X1194399Y-587998D01*
X1194399Y-438000D02*
G01*
X855799Y-438000D01*
X855799Y-327800D02*
G01*
X855799Y-438000D01*
X1194399Y-327800D02*
G01*
X855799Y-327800D01*
X1194399Y-327800D02*
G01*
X1194399Y-438000D01*
X1178540Y-734050D02*
G01*
X871460Y-734050D01*
X871460Y-734050D02*
G01*
X871460Y-615940D01*
X871460Y-615940D02*
G01*
X1178540Y-615940D01*
X1178540Y-615940D02*
G01*
X1178540Y-734050D01*
X1064369Y-675000D02*
G01*
X1103739Y-675000D01*
X985630Y-675000D02*
G01*
X946260Y-675000D01*
X1178540Y-284050D02*
G01*
X871460Y-284050D01*
X871460Y-284050D02*
G01*
X871460Y-165940D01*
X871460Y-165940D02*
G01*
X1178540Y-165940D01*
X1178540Y-165940D02*
G01*
X1178540Y-284050D01*
X1064369Y-225000D02*
G01*
X1103739Y-225000D01*
X985630Y-225000D02*
G01*
X946260Y-225000D01*
X710000Y-570000D02*
G01*
X640000Y-570000D01*
X640000Y-670000D01*
X710000Y-670000D01*
X770000Y-670000D02*
G01*
X840000Y-670000D01*
X840000Y-570000D01*
X770000Y-570000D01*
X625000Y-295000D02*
G01*
X625000Y-225000D01*
X525000Y-225000D01*
X525000Y-295000D01*
X525000Y-355000D02*
G01*
X525000Y-425000D01*
X625000Y-425000D01*
X625000Y-355000D01*
X125000Y-295000D02*
G01*
X125000Y-225000D01*
X25000Y-225000D01*
X25000Y-295000D01*
X25000Y-355000D02*
G01*
X25000Y-425000D01*
X125000Y-425000D01*
X125000Y-355000D01*
D30*
X150000Y-775000D02*
G01*
X50000Y-775000D01*
X50000Y-575000D01*
X150000Y-575000D01*
X150000Y-650000D01*
D31*
X150000Y-775000D02*
G01*
X150000Y-650000D01*
D32*
X600000Y-575000D02*
G01*
X200000Y-575000D01*
X200000Y-775000D01*
X600000Y-775000D01*
X600000Y-575000D01*
X947500Y-770999D02*
G01*
X1152500Y-770999D01*
X1152500Y-879000D01*
X947500Y-879000D01*
X947500Y-770999D01*
X1127500Y-770999D02*
G01*
X1127500Y-879000D01*
X947500Y-20999D02*
G01*
X1152500Y-20999D01*
X1152500Y-129000D01*
X947500Y-129000D01*
X947500Y-20999D01*
X1127500Y-20999D02*
G01*
X1127500Y-129000D01*
D33*
X506500Y-315740D02*
G01*
X506500Y-359050D01*
X443499Y-359050D01*
X443499Y-315740D01*
X506500Y-284250D02*
G01*
X506500Y-240940D01*
X467130Y-240940D01*
X443499Y-240940D01*
X443499Y-284250D01*
X206500Y-315740D02*
G01*
X206500Y-359050D01*
X143499Y-359050D01*
X143499Y-315740D01*
X206500Y-284250D02*
G01*
X206500Y-240940D01*
X167130Y-240940D01*
X143499Y-240940D01*
X143499Y-284250D01*
D29*
G75*
G01*
X828000Y-359100D02*
G03*
X672000Y-359100I-78000J58992D01*
G75*
G01*
X1064370Y-675000D02*
G02*
X1025000Y-675000I-19685J444D01*
G75*
G01*
X985600Y-675000D02*
G02*
X1025000Y-675000I19700J0D01*
G75*
G01*
X1064370Y-225000D02*
G02*
X1025000Y-225000I-19685J444D01*
G75*
G01*
X985600Y-225000D02*
G02*
X1025000Y-225000I19700J0D01*
G75*
G01
X550000Y-605000D02*
G03X550000Y-605000I-10000J0D01*
M02*
