G04 Layer: BottomSilkLayer*
G04 EasyEDA v6.4.17, 2021-03-05T12:05:08+01:00*
G04 f60f8210386e4bb8a37d6fc626a43cf4,a095d68295bf4de09e4161802e6eaeab,10*
G04 Gerber Generator version 0.2*
G04 Scale: 100 percent, Rotated: No, Reflected: No *
G04 Dimensions in inches *
G04 leading zeros omitted , absolute positions ,3 integer and 6 decimal *
%FSLAX36Y36*%
%MOIN*%

%ADD34C,0.0040*%
%ADD35C,0.0060*%
%ADD36C,0.0047*%

%LPD*%
D34*
X80010Y-40000D02*
G01*
X113420Y-40000D01*
X80010Y-40000D02*
G01*
X113420Y-52726D01*
X80010Y-65455D02*
G01*
X113420Y-52726D01*
X80010Y-65455D02*
G01*
X113420Y-65455D01*
X80010Y-75954D02*
G01*
X113420Y-75954D01*
X80010Y-75954D02*
G01*
X80010Y-96635D01*
X95920Y-75954D02*
G01*
X95920Y-88681D01*
X113420Y-75954D02*
G01*
X113420Y-96635D01*
X87964Y-130999D02*
G01*
X84783Y-129409D01*
X81601Y-126226D01*
X80010Y-123045D01*
X80010Y-116682D01*
X81601Y-113499D01*
X84783Y-110318D01*
X87964Y-108726D01*
X92737Y-107136D01*
X100693Y-107136D01*
X105464Y-108726D01*
X108647Y-110318D01*
X111828Y-113499D01*
X113420Y-116682D01*
X113420Y-123045D01*
X111828Y-126226D01*
X108647Y-129409D01*
X105464Y-130999D01*
X100693Y-130999D01*
X100693Y-123045D02*
G01*
X100693Y-130999D01*
X80010Y-154227D02*
G01*
X113420Y-141500D01*
X80010Y-154227D02*
G01*
X113420Y-166954D01*
X102283Y-146273D02*
G01*
X102283Y-162181D01*
X87964Y-225817D02*
G01*
X84783Y-224227D01*
X81601Y-221044D01*
X80010Y-217863D01*
X80010Y-211500D01*
X81601Y-208317D01*
X84783Y-205136D01*
X87964Y-203544D01*
X92737Y-201954D01*
X100693Y-201954D01*
X105464Y-203544D01*
X108647Y-205136D01*
X111828Y-208317D01*
X113420Y-211500D01*
X113420Y-217863D01*
X111828Y-221044D01*
X108647Y-224227D01*
X105464Y-225817D01*
X100693Y-225817D01*
X100693Y-217863D02*
G01*
X100693Y-225817D01*
X80010Y-236318D02*
G01*
X103874Y-236318D01*
X108647Y-237908D01*
X111828Y-241091D01*
X113420Y-245864D01*
X113420Y-249045D01*
X111828Y-253818D01*
X108647Y-256999D01*
X103874Y-258591D01*
X80010Y-258591D01*
X80010Y-280226D02*
G01*
X113420Y-280226D01*
X80010Y-269090D02*
G01*
X80010Y-291363D01*
X80010Y-313000D02*
G01*
X113420Y-313000D01*
X80010Y-301864D02*
G01*
X80010Y-324135D01*
X80010Y-347363D02*
G01*
X113420Y-334636D01*
X80010Y-347363D02*
G01*
X113420Y-360091D01*
X102283Y-339409D02*
G01*
X102283Y-355318D01*
X80010Y-370590D02*
G01*
X113420Y-370590D01*
X80010Y-370590D02*
G01*
X80010Y-384908D01*
X81601Y-389681D01*
X83193Y-391273D01*
X86374Y-392863D01*
X91147Y-392863D01*
X94328Y-391273D01*
X95920Y-389681D01*
X97510Y-384908D01*
X97510Y-370590D01*
X80010Y-403364D02*
G01*
X113420Y-403364D01*
X80010Y-403364D02*
G01*
X80010Y-424045D01*
X95920Y-403364D02*
G01*
X95920Y-416091D01*
X113420Y-403364D02*
G01*
X113420Y-424045D01*
X80010Y-434544D02*
G01*
X113420Y-434544D01*
X80010Y-434544D02*
G01*
X80010Y-448863D01*
X81601Y-453636D01*
X83193Y-455226D01*
X86374Y-456817D01*
X89555Y-456817D01*
X92737Y-455226D01*
X94328Y-453636D01*
X95920Y-448863D01*
X95920Y-434544D01*
X95920Y-445682D02*
G01*
X113420Y-456817D01*
X80010Y-467318D02*
G01*
X113420Y-467318D01*
X80010Y-489591D02*
G01*
X102283Y-467318D01*
X94328Y-475273D02*
G01*
X113420Y-489591D01*
X80010Y-512818D02*
G01*
X113420Y-500091D01*
X80010Y-512818D02*
G01*
X113420Y-525545D01*
X102283Y-504863D02*
G01*
X102283Y-520772D01*
D35*
X742013Y-48189D02*
G01*
X747467Y-42734D01*
X755650Y-40007D01*
X766559Y-40007D01*
X774740Y-42734D01*
X780194Y-48189D01*
X780194Y-53643D01*
X777467Y-59099D01*
X774740Y-61826D01*
X769286Y-64553D01*
X752923Y-70007D01*
X747467Y-72734D01*
X744740Y-75462D01*
X742013Y-80916D01*
X742013Y-89099D01*
X747467Y-94553D01*
X755650Y-97280D01*
X766559Y-97280D01*
X774740Y-94553D01*
X780194Y-89099D01*
X724014Y-40007D02*
G01*
X724014Y-80916D01*
X721286Y-89099D01*
X715832Y-94553D01*
X707649Y-97280D01*
X702195Y-97280D01*
X694014Y-94553D01*
X688559Y-89099D01*
X685832Y-80916D01*
X685832Y-40007D01*
X667831Y-40007D02*
G01*
X667831Y-97280D01*
X667831Y-40007D02*
G01*
X643285Y-40007D01*
X635104Y-42734D01*
X632377Y-45462D01*
X629650Y-50916D01*
X629650Y-59099D01*
X632377Y-64553D01*
X635104Y-67280D01*
X643285Y-70007D01*
X667831Y-70007D01*
X611649Y-40007D02*
G01*
X611649Y-97280D01*
X611649Y-40007D02*
G01*
X576194Y-40007D01*
X611649Y-67280D02*
G01*
X589832Y-67280D01*
X611649Y-97280D02*
G01*
X576194Y-97280D01*
X558195Y-40007D02*
G01*
X558195Y-97280D01*
X558195Y-40007D02*
G01*
X533649Y-40007D01*
X525468Y-42734D01*
X522741Y-45462D01*
X520014Y-50916D01*
X520014Y-56370D01*
X522741Y-61826D01*
X525468Y-64553D01*
X533649Y-67280D01*
X558195Y-67280D01*
X539104Y-67280D02*
G01*
X520014Y-97280D01*
X822539Y-140007D02*
G01*
X822539Y-197280D01*
X822539Y-140007D02*
G01*
X797993Y-140007D01*
X789812Y-142734D01*
X787085Y-145462D01*
X784357Y-150916D01*
X784357Y-156370D01*
X787085Y-161824D01*
X789812Y-164553D01*
X797993Y-167280D01*
X822539Y-167280D02*
G01*
X797993Y-167280D01*
X789812Y-170007D01*
X787085Y-172734D01*
X784357Y-178189D01*
X784357Y-186370D01*
X787085Y-191824D01*
X789812Y-194553D01*
X797993Y-197280D01*
X822539Y-197280D01*
X766356Y-140007D02*
G01*
X766356Y-197280D01*
X748357Y-140007D02*
G01*
X748357Y-197280D01*
X748357Y-197280D02*
G01*
X715630Y-197280D01*
X697629Y-140007D02*
G01*
X697629Y-197280D01*
X697629Y-140007D02*
G01*
X673085Y-140007D01*
X664902Y-142734D01*
X662175Y-145462D01*
X659448Y-150916D01*
X659448Y-156370D01*
X662175Y-161824D01*
X664902Y-164553D01*
X673085Y-167280D01*
X697629Y-167280D02*
G01*
X673085Y-167280D01*
X664902Y-170007D01*
X662175Y-172734D01*
X659448Y-178189D01*
X659448Y-186370D01*
X662175Y-191824D01*
X664902Y-194553D01*
X673085Y-197280D01*
X697629Y-197280D01*
X619630Y-140007D02*
G01*
X641448Y-197280D01*
X619630Y-140007D02*
G01*
X597811Y-197280D01*
X633265Y-178189D02*
G01*
X605994Y-178189D01*
X579812Y-140007D02*
G01*
X579812Y-197280D01*
X579812Y-140007D02*
G01*
X541630Y-197280D01*
X541630Y-140007D02*
G01*
X541630Y-197280D01*
X501811Y-140007D02*
G01*
X523629Y-197280D01*
X501811Y-140007D02*
G01*
X479994Y-197280D01*
X515448Y-178189D02*
G01*
X488175Y-178189D01*
X615084Y-253643D02*
G01*
X615084Y-250916D01*
X612357Y-245462D01*
X609630Y-242734D01*
X604176Y-240007D01*
X593267Y-240007D01*
X587813Y-242734D01*
X585084Y-245462D01*
X582357Y-250916D01*
X582357Y-256370D01*
X585084Y-261824D01*
X590540Y-270007D01*
X617813Y-297280D01*
X579630Y-297280D01*
X558903Y-283643D02*
G01*
X561631Y-286370D01*
X558903Y-289097D01*
X556176Y-286370D01*
X558903Y-283643D01*
X505448Y-240007D02*
G01*
X532721Y-240007D01*
X535448Y-264553D01*
X532721Y-261824D01*
X524540Y-259097D01*
X516358Y-259097D01*
X508175Y-261824D01*
X502721Y-267280D01*
X499994Y-275462D01*
X499994Y-280916D01*
X502721Y-289097D01*
X508175Y-294553D01*
X516358Y-297280D01*
X524540Y-297280D01*
X532721Y-294553D01*
X535448Y-291824D01*
X538175Y-286370D01*
D34*
X610783Y-615407D02*
G01*
X608083Y-614007D01*
X603982Y-610007D01*
X603982Y-638607D01*
X594983Y-610007D02*
G01*
X594983Y-638607D01*
X581383Y-619506D02*
G01*
X594983Y-633107D01*
X589483Y-627707D02*
G01*
X579983Y-638607D01*
X610783Y-715497D02*
G01*
X608083Y-714097D01*
X603982Y-709998D01*
X603982Y-738697D01*
X594983Y-709998D02*
G01*
X594983Y-738697D01*
X581383Y-719598D02*
G01*
X594983Y-733198D01*
X589483Y-727797D02*
G01*
X579983Y-738697D01*
D36*
X519695Y-598200D02*
G01*
X480295Y-598200D01*
X480295Y-651799D02*
G01*
X519695Y-651799D01*
X519695Y-698200D02*
G01*
X480295Y-698200D01*
X480295Y-751799D02*
G01*
X519695Y-751799D01*
M02*
